<svg width="636" height="636" viewBox="0 0 636 636" fill="none" xmlns="http://www.w3.org/2000/svg">
<path fill-rule="evenodd" clip-rule="evenodd" d="M296.802 86.9195H234.262C199.722 86.9195 171.722 114.92 171.722 149.46C171.722 183.999 199.722 212 234.262 212H296.802V86.9195ZM296.802 44.5195H339.202H401.742C459.701 44.5195 506.68 91.5025 506.68 149.46C506.68 183.661 490.322 214.041 464.996 233.2C490.322 252.358 506.68 282.738 506.68 316.94C506.68 374.896 459.701 421.88 401.742 421.88C378.308 421.88 356.668 414.199 339.202 401.217V421.88V484.42C339.202 542.377 292.219 589.36 234.262 589.36C176.305 589.36 129.322 542.377 129.322 484.42C129.322 450.216 145.683 419.838 171.006 400.68C145.683 381.521 129.322 351.141 129.322 316.94C129.322 282.738 145.684 252.358 171.007 233.2C145.684 214.041 129.322 183.661 129.322 149.46C129.322 91.5025 176.305 44.5195 234.262 44.5195H296.802ZM339.202 86.9195V212H401.742C436.283 212 464.28 183.999 464.28 149.46C464.28 114.92 436.283 86.9195 401.742 86.9195H339.202ZM234.262 379.479H296.802V317.101V316.94V316.779V254.4H234.262C199.722 254.4 171.722 282.4 171.722 316.94C171.722 351.397 199.588 379.346 234.014 379.48L234.262 379.479ZM171.722 484.42C171.722 449.961 199.588 422.014 234.014 421.88L234.262 421.88H296.802V484.42C296.802 518.959 268.802 546.96 234.262 546.96C199.722 546.96 171.722 518.959 171.722 484.42ZM339.202 316.815C339.269 282.333 367.244 254.4 401.742 254.4C436.283 254.4 464.28 282.4 464.28 316.94C464.28 351.48 436.283 379.48 401.742 379.48C367.244 379.48 339.269 351.547 339.202 317.065V316.815Z" fill="white"/>
</svg>
