<svg width="636" height="636" viewBox="0 0 636 636" fill="none" xmlns="http://www.w3.org/2000/svg">
<g clip-path="url(#clip0_737_75)">
<path d="M623.33 287.442L348.558 12.6703C340.732 4.84453 329.925 0 318 0C306.075 0 295.268 4.84453 287.442 12.6703L12.6703 287.442C4.84453 295.268 0 306.075 0 318C0 329.925 4.84453 340.732 12.6703 348.558L287.442 623.33C295.268 631.155 306.075 636 318 636C329.925 636 340.732 631.155 348.558 623.33L623.33 348.558C631.155 340.732 636 329.925 636 318C636 306.075 631.155 295.268 623.33 287.442ZM318 592.896L43.2281 318L206.824 154.404L266.946 214.526C265.207 219.619 264.089 225.581 264.089 231.668C264.089 253.655 277.256 272.536 296.013 280.983L296.386 281.107V398.121C277.256 406.692 264.089 425.573 264.089 447.56C264.089 477.373 288.188 501.595 318.124 501.595C348.061 501.595 372.159 477.497 372.159 447.56C372.159 425.573 358.992 406.568 340.111 398.245L339.738 398.121V287.318L385.823 333.279C384.084 338.372 382.966 344.334 382.966 350.421C382.966 380.234 407.189 404.456 437.002 404.456C466.814 404.456 491.037 380.234 491.037 350.421C491.037 320.609 466.814 296.386 437.002 296.386C428.927 296.386 421.35 298.125 414.394 301.355L414.766 301.23L367.439 253.903C370.42 247.32 372.159 239.742 372.159 231.668C372.159 201.855 348.061 177.633 318.124 177.633C310.05 177.633 302.473 179.372 295.516 182.602L295.889 182.477L237.258 123.846L318 43.1039L592.772 318L318 592.896Z" fill="white"/>
</g>
<defs>
<clipPath id="clip0_737_75">
<rect width="636" height="636" fill="white"/>
</clipPath>
</defs>
</svg>
