<svg width="636" height="600" viewBox="0 0 636 600" fill="none" xmlns="http://www.w3.org/2000/svg">
<path d="M156 41C160.29 41 164.58 41 169 41C169 41.66 169 42.32 169 43C170.32 43 171.64 43 173 43C173 43.66 173 44.32 173 45C174.32 45 175.64 45 177 45C177 45.66 177 46.32 177 47C177.66 47 178.32 47 179 47C179 47.66 179 48.32 179 49C180.32 49 181.64 49 183 49C183 49.66 183 50.32 183 51C184.32 51 185.64 51 187 51C187 51.66 187 52.32 187 53C188.32 53 189.64 53 191 53C191 53.66 191 54.32 191 55C191.66 55 192.32 55 193 55C193 55.66 193 56.32 193 57C194.32 57 195.64 57 197 57C197 57.66 197 58.32 197 59C198.32 59 199.64 59 201 59C201 59.66 201 60.32 201 61C202.98 61.66 204.96 62.32 207 63C207 63.66 207 64.32 207 65C208.32 65 209.64 65 211 65C211 65.66 211 66.32 211 67C212.32 67 213.64 67 215 67C215 67.66 215 68.32 215 69C216.98 69.66 218.96 70.32 221 71C221 71.66 221 72.32 221 73C222.32 73 223.64 73 225 73C225 73.66 225 74.32 225 75C225.99 75 226.98 75 228 75C228 75.66 228 76.32 228 77C228.66 77 229.32 77 230 77C230 77.66 230 78.32 230 79C231.32 79 232.64 79 234 79C234 79.66 234 80.32 234 81C235.32 81 236.64 81 238 81C238 81.66 238 82.32 238 83C239.32 83 240.64 83 242 83C242 83.66 242 84.32 242 85C242.66 85 243.32 85 244 85C244 85.66 244 86.32 244 87C245.32 87 246.64 87 248 87C248 87.66 248 88.32 248 89C249.32 89 250.64 89 252 89C252 89.66 252 90.32 252 91C254.97 91.495 254.97 91.495 258 92C258 92.66 258 93.32 258 94C259.32 94 260.64 94 262 94C262 94.66 262 95.32 262 96C263.32 96 264.64 96 266 96C266 96.66 266 97.32 266 98C266.66 98 267.32 98 268 98C268 98.66 268 99.32 268 100C268.66 100 269.32 100 270 100C272.58 103.867 272.273 107.909 272.241 112.378C272.242 113.23 272.244 114.083 272.246 114.962C272.249 117.824 272.238 120.686 272.227 123.548C272.226 125.598 272.227 127.648 272.228 129.697C272.229 135.267 272.217 140.837 272.203 146.407C272.19 152.226 272.189 158.045 272.187 163.864C272.181 174.885 272.164 185.906 272.144 196.928C272.122 209.474 272.111 222.02 272.101 234.567C272.08 260.378 272.045 286.189 272 312C272.99 312 273.98 312 275 312C275 311.34 275 310.68 275 310C278 308 278 308 281 308C281 307.34 281 306.68 281 306C282.32 306 283.64 306 285 306C285 305.34 285 304.68 285 304C286.32 304 287.64 304 289 304C289 303.34 289 302.68 289 302C289.66 302 290.32 302 291 302C291 301.34 291 300.68 291 300C292.32 300 293.64 300 295 300C295 299.34 295 298.68 295 298C296.32 298 297.64 298 299 298C299 297.34 299 296.68 299 296C300.98 295.34 302.96 294.68 305 294C305 293.34 305 292.68 305 292C306.32 292 307.64 292 309 292C309 291.34 309 290.68 309 290C310.98 289.67 312.96 289.34 315 289C315 288.34 315 287.68 315 287C316.32 287 317.64 287 319 287C319 286.34 319 285.68 319 285C320.32 285 321.64 285 323 285C323 284.34 323 283.68 323 283C324.32 283 325.64 283 327 283C327 282.34 327 281.68 327 281C327.66 281 328.32 281 329 281C329 280.34 329 279.68 329 279C330.32 279 331.64 279 333 279C333 278.34 333 277.68 333 277C334.32 277 335.64 277 337 277C337 276.34 337 275.68 337 275C337.99 275 338.98 275 340 275C340 274.34 340 273.68 340 273C340.66 273 341.32 273 342 273C342 272.34 342 271.68 342 271C343.32 271 344.64 271 346 271C346 270.34 346 269.68 346 269C346.66 269 347.32 269 348 269C348 233.03 348 197.06 348 160C348.66 160 349.32 160 350 160C350 158.68 350 157.36 350 156C350.66 156 351.32 156 352 156C352 155.34 352 154.68 352 154C352.66 154 353.32 154 354 154C354 153.34 354 152.68 354 152C355.32 152 356.64 152 358 152C358 151.34 358 150.68 358 150C359.32 150 360.64 150 362 150C362 149.34 362 148.68 362 148C363.98 147.34 365.96 146.68 368 146C368 145.34 368 144.68 368 144C369.32 144 370.64 144 372 144C372 143.34 372 142.68 372 142C373.32 142 374.64 142 376 142C376 141.34 376 140.68 376 140C379 138 379 138 382 138C382 137.34 382 136.68 382 136C383.32 136 384.64 136 386 136C386 135.34 386 134.68 386 134C387.32 134 388.64 134 390 134C390 133.34 390 132.68 390 132C390.66 132 391.32 132 392 132C392 131.34 392 130.68 392 130C393.32 130 394.64 130 396 130C396 129.34 396 128.68 396 128C397.32 128 398.64 128 400 128C400 127.34 400 126.68 400 126C401.32 126 402.64 126 404 126C404 125.34 404 124.68 404 124C404.66 124 405.32 124 406 124C406 123.34 406 122.68 406 122C407.32 122 408.64 122 410 122C410 121.34 410 120.68 410 120C411.32 120 412.64 120 414 120C414 119.34 414 118.68 414 118C415.32 118 416.64 118 418 118C418 117.34 418 116.68 418 116C418.66 116 419.32 116 420 116C420 115.34 420 114.68 420 114C421.32 114 422.64 114 424 114C424 113.34 424 112.68 424 112C425.32 112 426.64 112 428 112C428 111.34 428 110.68 428 110C429.98 109.34 431.96 108.68 434 108C434 107.34 434 106.68 434 106C434.843 105.59 435.686 105.18 436.555 104.758C437.65 104.219 438.746 103.68 439.875 103.125C440.966 102.591 442.056 102.058 443.18 101.508C446.039 100.155 446.039 100.155 448 98C448.99 98 449.98 98 451 98C451 97.34 451 96.68 451 96C455.29 96 459.58 96 464 96C464 96.66 464 97.32 464 98C465.98 98.66 467.96 99.32 470 100C470 100.66 470 101.32 470 102C471.32 102 472.64 102 474 102C474 102.66 474 103.32 474 104C474.619 104.144 475.238 104.289 475.875 104.438C478 105 478 105 480 106C480 106.66 480 107.32 480 108C481.32 108 482.64 108 484 108C484 108.66 484 109.32 484 110C485.32 110 486.64 110 488 110C488 110.66 488 111.32 488 112C488.619 112.144 489.238 112.289 489.875 112.438C492 113 492 113 494 114C494 114.66 494 115.32 494 116C495.32 116 496.64 116 498 116C498 116.66 498 117.32 498 118C499.32 118 500.64 118 502 118C502 118.66 502 119.32 502 120C503.98 120.66 505.96 121.32 508 122C508 122.66 508 123.32 508 124C509.32 124 510.64 124 512 124C512 124.66 512 125.32 512 126C513.32 126 514.64 126 516 126C516 126.66 516 127.32 516 128C517.98 128.66 519.96 129.32 522 130C522 130.66 522 131.32 522 132C522.99 132 523.98 132 525 132C525 132.66 525 133.32 525 134C526.32 134 527.64 134 529 134C529 134.66 529 135.32 529 136C530.98 136.66 532.96 137.32 535 138C535 138.66 535 139.32 535 140C536.32 140 537.64 140 539 140C539 140.66 539 141.32 539 142C540.32 142 541.64 142 543 142C543 142.66 543 143.32 543 144C543.66 144 544.32 144 545 144C545 144.66 545 145.32 545 146C546.32 146 547.64 146 549 146C549 146.66 549 147.32 549 148C550.32 148 551.64 148 553 148C553 148.66 553 149.32 553 150C554.32 150 555.64 150 557 150C557 150.66 557 151.32 557 152C557.66 152 558.32 152 559 152C559 152.66 559 153.32 559 154C560.32 154 561.64 154 563 154C563 154.66 563 155.32 563 156C563.66 156 564.32 156 565 156C565 197.25 565 238.5 565 281C564.34 281 563.68 281 563 281C563 281.66 563 282.32 563 283C561.68 283 560.36 283 559 283C559 283.66 559 284.32 559 285C558.34 285 557.68 285 557 285C557 285.66 557 286.32 557 287C555.68 287 554.36 287 553 287C553 287.66 553 288.32 553 289C551.68 289 550.36 289 549 289C549 289.66 549 290.32 549 291C547.68 291 546.36 291 545 291C545 291.66 545 292.32 545 293C544.34 293 543.68 293 543 293C543 293.66 543 294.32 543 295C541.68 295 540.36 295 539 295C539 295.66 539 296.32 539 297C537.68 297 536.36 297 535 297C535 297.66 535 298.32 535 299C533.68 299 532.36 299 531 299C531 299.66 531 300.32 531 301C530.34 301 529.68 301 529 301C529 301.66 529 302.32 529 303C527.68 303 526.36 303 525 303C525 303.66 525 304.32 525 305C524.01 305 523.02 305 522 305C522 305.66 522 306.32 522 307C520.68 307 519.36 307 518 307C518 307.66 518 308.32 518 309C517.34 309 516.68 309 516 309C516 309.66 516 310.32 516 311C514.68 311 513.36 311 512 311C512 311.66 512 312.32 512 313C510.68 313 509.36 313 508 313C508 313.66 508 314.32 508 315C507.01 315 506.02 315 505 315C505 315.66 505 316.32 505 317C504.01 317 503.02 317 502 317C502 317.66 502 318.32 502 319C500.68 319 499.36 319 498 319C498 319.66 498 320.32 498 321C496.68 321 495.36 321 494 321C494 321.66 494 322.32 494 323C493.34 323 492.68 323 492 323C492 323.66 492 324.32 492 325C490.68 325 489.36 325 488 325C488 325.66 488 326.32 488 327C486.68 327 485.36 327 484 327C484 327.66 484 328.32 484 329C482.68 329 481.36 329 480 329C480 329.66 480 330.32 480 331C479.34 331 478.68 331 478 331C478 331.66 478 332.32 478 333C476.68 333 475.36 333 474 333C474 333.66 474 334.32 474 335C472.68 335 471.36 335 470 335C470 335.66 470 336.32 470 337C469.34 337 468.68 337 468 337C468 373.63 468 410.26 468 448C467.34 448 466.68 448 466 448C466 448.66 466 449.32 466 450C465.34 450 464.68 450 464 450C464 450.66 464 451.32 464 452C463.34 452 462.68 452 462 452C462 452.66 462 453.32 462 454C460.68 454 459.36 454 458 454C458 454.66 458 455.32 458 456C456.68 456 455.36 456 454 456C454 456.66 454 457.32 454 458C453.34 458 452.68 458 452 458C452 458.66 452 459.32 452 460C450.68 460 449.36 460 448 460C448 460.66 448 461.32 448 462C446.68 462 445.36 462 444 462C444 462.66 444 463.32 444 464C442.02 464.66 440.04 465.32 438 466C438 466.66 438 467.32 438 468C436.68 468 435.36 468 434 468C434 468.66 434 469.32 434 470C432.68 470 431.36 470 430 470C430 470.66 430 471.32 430 472C429.34 472 428.68 472 428 472C428 472.66 428 473.32 428 474C421.5 477 421.5 477 417 477C417 477.66 417 478.32 417 479C416.01 479 415.02 479 414 479C414 479.66 414 480.32 414 481C413.01 481 412.02 481 411 481C411 481.66 411 482.32 411 483C409.68 483 408.36 483 407 483C407 483.66 407 484.32 407 485C405.68 485 404.36 485 403 485C403 485.66 403 486.32 403 487C402.34 487 401.68 487 401 487C401 487.66 401 488.32 401 489C399.68 489 398.36 489 397 489C397 489.66 397 490.32 397 491C395.68 491 394.36 491 393 491C393 491.66 393 492.32 393 493C391.68 493 390.36 493 389 493C389 493.66 389 494.32 389 495C388.34 495 387.68 495 387 495C387 495.66 387 496.32 387 497C385.68 497 384.36 497 383 497C383 497.66 383 498.32 383 499C381.68 499 380.36 499 379 499C379 499.66 379 500.32 379 501C378.01 501 377.02 501 376 501C376 501.66 376 502.32 376 503C375.01 503 374.02 503 373 503C373 503.66 373 504.32 373 505C371.68 505 370.36 505 369 505C369 505.66 369 506.32 369 507C367.68 507 366.36 507 365 507C365 507.66 365 508.32 365 509C364.34 509 363.68 509 363 509C363 509.66 363 510.32 363 511C361.68 511 360.36 511 359 511C359 511.66 359 512.32 359 513C357.68 513 356.36 513 355 513C355 513.66 355 514.32 355 515C353.68 515 352.36 515 351 515C351 515.66 351 516.32 351 517C350.34 517 349.68 517 349 517C349 517.66 349 518.32 349 519C347.68 519 346.36 519 345 519C345 519.66 345 520.32 345 521C343.68 521 342.36 521 341 521C341 521.66 341 522.32 341 523C339.68 523 338.36 523 337 523C337 523.66 337 524.32 337 525C336.34 525 335.68 525 335 525C335 525.66 335 526.32 335 527C333.68 527 332.36 527 331 527C331 527.66 331 528.32 331 529C329.68 529 328.36 529 327 529C327 529.66 327 530.32 327 531C326.01 531 325.02 531 324 531C324 531.66 324 532.32 324 533C323.34 533 322.68 533 322 533C322 533.66 322 534.32 322 535C320.68 535 319.36 535 318 535C318 535.66 318 536.32 318 537C316.68 537 315.36 537 314 537C314 537.66 314 538.32 314 539C312.02 539.66 310.04 540.32 308 541C308 541.66 308 542.32 308 543C306.68 543 305.36 543 304 543C304 543.66 304 544.32 304 545C302.68 545 301.36 545 300 545C300 545.66 300 546.32 300 547C297 549 297 549 294 549C294 549.66 294 550.32 294 551C292.68 551 291.36 551 290 551C290 551.66 290 552.32 290 553C288.68 553 287.36 553 286 553C286 553.66 286 554.32 286 555C285.34 555 284.68 555 284 555C284 555.66 284 556.32 284 557C282.68 557 281.36 557 280 557C280 557.66 280 558.32 280 559C278.68 559 277.36 559 276 559C276 559.66 276 560.32 276 561C274.68 561 273.36 561 272 561C272 561.66 272 562.32 272 563C271.34 563 270.68 563 270 563C270 563.66 270 564.32 270 565C268.68 565 267.36 565 266 565C266 565.66 266 566.32 266 567C259.428 567.469 255.628 566.312 250 563C249.321 562.618 248.641 562.237 247.941 561.844C246.286 560.911 244.642 559.958 243 559C243 558.34 243 557.68 243 557C241.68 557 240.36 557 239 557C239 556.34 239 555.68 239 555C238.01 555 237.02 555 236 555C236 554.34 236 553.68 236 553C234.68 553 233.36 553 232 553C232 552.34 232 551.68 232 551C231.34 551 230.68 551 230 551C230 550.34 230 549.68 230 549C228.68 549 227.36 549 226 549C226 548.34 226 547.68 226 547C224.68 547 223.36 547 222 547C222 546.34 222 545.68 222 545C220.68 545 219.36 545 218 545C218 544.34 218 543.68 218 543C217.34 543 216.68 543 216 543C216 542.34 216 541.68 216 541C214.68 541 213.36 541 212 541C212 540.34 212 539.68 212 539C210.68 539 209.36 539 208 539C208 538.34 208 537.68 208 537C206.02 536.34 204.04 535.68 202 535C202 534.34 202 533.68 202 533C200.68 533 199.36 533 198 533C198 532.34 198 531.68 198 531C196.68 531 195.36 531 194 531C194 530.34 194 529.68 194 529C192.02 528.34 190.04 527.68 188 527C188 526.34 188 525.68 188 525C186.68 525 185.36 525 184 525C184 524.34 184 523.68 184 523C182.68 523 181.36 523 180 523C180 522.34 180 521.68 180 521C179.34 521 178.68 521 178 521C178 520.34 178 519.68 178 519C176.68 519 175.36 519 174 519C174 518.34 174 517.68 174 517C172.68 517 171.36 517 170 517C170 516.34 170 515.68 170 515C168.68 515 167.36 515 166 515C166 514.34 166 513.68 166 513C165.34 513 164.68 513 164 513C164 512.34 164 511.68 164 511C162.68 511 161.36 511 160 511C160 510.34 160 509.68 160 509C158.68 509 157.36 509 156 509C156 508.34 156 507.68 156 507C155.01 507 154.02 507 153 507C153 506.34 153 505.68 153 505C152.01 505 151.02 505 150 505C150 504.34 150 503.68 150 503C148.68 503 147.36 503 146 503C146 502.34 146 501.68 146 501C144.68 501 143.36 501 142 501C142 500.34 142 499.68 142 499C141.01 499 140.02 499 139 499C139 498.34 139 497.68 139 497C138.34 497 137.68 497 137 497C137 496.34 137 495.68 137 495C135.68 495 134.36 495 133 495C133 494.34 133 493.68 133 493C131.68 493 130.36 493 129 493C129 492.34 129 491.68 129 491C128.34 491 127.68 491 127 491C127 490.34 127 489.68 127 489C125.68 489 124.36 489 123 489C123 488.34 123 487.68 123 487C121.68 487 120.36 487 119 487C119 486.34 119 485.68 119 485C117.68 485 116.36 485 115 485C115 484.34 115 483.68 115 483C114.34 483 113.68 483 113 483C113 482.34 113 481.68 113 481C111.68 481 110.36 481 109 481C109 480.34 109 479.68 109 479C107.68 479 106.36 479 105 479C105 478.34 105 477.68 105 477C103.02 476.67 101.04 476.34 99 476C99 475.34 99 474.68 99 474C97.68 474 96.36 474 95 474C95 473.34 95 472.68 95 472C93.68 472 92.36 472 91 472C91 471.34 91 470.68 91 470C90.3813 469.856 89.7625 469.711 89.125 469.562C87 469 87 469 85 468C85 467.34 85 466.68 85 466C83.68 466 82.36 466 81 466C81 465.34 81 464.68 81 464C79.68 464 78.36 464 77 464C77 463.34 77 462.68 77 462C75.02 461.34 73.04 460.68 71 460C71 459.34 71 458.68 71 458C69.68 458 68.36 458 67 458C67 457.34 67 456.68 67 456C65.68 456 64.36 456 63 456C63 455.34 63 454.68 63 454C62.34 454 61.68 454 61 454C61 453.34 61 452.68 61 452C59.68 452 58.36 452 57 452C57 451.34 57 450.68 57 450C56.34 450 55.68 450 55 450C55 334.5 55 219 55 100C55.66 100 56.32 100 57 100C57 99.34 57 98.68 57 98C58.32 98 59.64 98 61 98C61 97.34 61 96.68 61 96C61.66 96 62.32 96 63 96C63 95.34 63 94.68 63 94C64.32 94 65.64 94 67 94C67 93.34 67 92.68 67 92C70.465 91.505 70.465 91.505 74 91C74 90.34 74 89.68 74 89C74.99 89 75.98 89 77 89C77 88.34 77 87.68 77 87C78.32 87 79.64 87 81 87C81 86.34 81 85.68 81 85C82.32 85 83.64 85 85 85C85 84.34 85 83.68 85 83C85.66 83 86.32 83 87 83C87 82.34 87 81.68 87 81C88.32 81 89.64 81 91 81C91 80.34 91 79.68 91 79C92.32 79 93.64 79 95 79C95 78.34 95 77.68 95 77C96.32 77 97.64 77 99 77C99 76.34 99 75.68 99 75C99.66 75 100.32 75 101 75C101 74.34 101 73.68 101 73C102.32 73 103.64 73 105 73C105 72.34 105 71.68 105 71C106.32 71 107.64 71 109 71C109 70.34 109 69.68 109 69C110.32 69 111.64 69 113 69C113 68.34 113 67.68 113 67C113.66 67 114.32 67 115 67C115 66.34 115 65.68 115 65C116.32 65 117.64 65 119 65C119 64.34 119 63.68 119 63C120.32 63 121.64 63 123 63C123 62.34 123 61.68 123 61C124.32 61 125.64 61 127 61C127 60.34 127 59.68 127 59C127.66 59 128.32 59 129 59C129 58.34 129 57.68 129 57C130.32 57 131.64 57 133 57C133 56.34 133 55.68 133 55C134.32 55 135.64 55 137 55C137 54.34 137 53.68 137 53C138.65 52.34 140.3 51.68 142 51C142 50.34 142 49.68 142 49C143.32 49 144.64 49 146 49C146 48.34 146 47.68 146 47C147.32 47 148.64 47 150 47C150 46.34 150 45.68 150 45C150.99 45 151.98 45 153 45C153 44.34 153 43.68 153 43C153.99 43 154.98 43 156 43C156 42.34 156 41.68 156 41ZM159 64C159 64.66 159 65.32 159 66C158.34 66 157.68 66 157 66C157 66.66 157 67.32 157 68C155.68 68 154.36 68 153 68C153 68.66 153 69.32 153 70C151.68 70 150.36 70 149 70C149 70.66 149 71.32 149 72C147.68 72 146.36 72 145 72C145 72.66 145 73.32 145 74C144.34 74 143.68 74 143 74C143 74.66 143 75.32 143 76C141.68 76 140.36 76 139 76C139 76.66 139 77.32 139 78C137.02 78.33 135.04 78.66 133 79C133 79.66 133 80.32 133 81C131.68 81 130.36 81 129 81C129 81.66 129 82.32 129 83C128.01 83 127.02 83 126 83C126 83.66 126 84.32 126 85C124.68 85 123.36 85 122 85C122 85.66 122 86.32 122 87C121.01 87 120.02 87 119 87C119 87.66 119 88.32 119 89C118.01 89 117.02 89 116 89C116 89.66 116 90.32 116 91C114.68 91 113.36 91 112 91C112 91.66 112 92.32 112 93C110.68 93 109.36 93 108 93C108 93.66 108 94.32 108 95C107.34 95 106.68 95 106 95C106 95.66 106 96.32 106 97C104.68 97 103.36 97 102 97C102 97.66 102 98.32 102 99C100.68 99 99.36 99 98 99C98 99.66 98 100.32 98 101C96.68 101 95.36 101 94 101C94 101.66 94 102.32 94 103C93.34 103 92.68 103 92 103C92 103.66 92 104.32 92 105C90.68 105 89.36 105 88 105C88 105.66 88 106.32 88 107C87.01 107.495 87.01 107.495 86 108C87.32 108 88.64 108 90 108C90 108.66 90 109.32 90 110C91.32 110 92.64 110 94 110C94 110.66 94 111.32 94 112C95.98 112.66 97.96 113.32 100 114C100 114.66 100 115.32 100 116C101.32 116 102.64 116 104 116C104 116.66 104 117.32 104 118C105.32 118 106.64 118 108 118C108 118.66 108 119.32 108 120C109.98 120.66 111.96 121.32 114 122C114 122.66 114 123.32 114 124C115.32 124 116.64 124 118 124C118 124.66 118 125.32 118 126C119.32 126 120.64 126 122 126C122 126.66 122 127.32 122 128C124.815 130.277 124.815 130.277 128 130C128 130.66 128 131.32 128 132C128.99 132 129.98 132 131 132C131 132.66 131 133.32 131 134C132.32 134 133.64 134 135 134C135 134.66 135 135.32 135 136C135.66 136 136.32 136 137 136C137 136.66 137 137.32 137 138C138.32 138 139.64 138 141 138C141 138.66 141 139.32 141 140C142.32 140 143.64 140 145 140C145 140.66 145 141.32 145 142C146.32 142 147.64 142 149 142C149 142.66 149 143.32 149 144C149.66 144 150.32 144 151 144C151 144.66 151 145.32 151 146C152.32 146 153.64 146 155 146C155 146.66 155 147.32 155 148C156.32 148 157.64 148 159 148C159 148.66 159 149.32 159 150C160.32 150 161.64 150 163 150C163.33 150.66 163.66 151.32 164 152C164 151.34 164 150.68 164 150C164.619 149.856 165.238 149.711 165.875 149.562C168.033 149.068 168.033 149.068 170 148C170 147.34 170 146.68 170 146C171.32 146 172.64 146 174 146C174 145.34 174 144.68 174 144C175.32 144 176.64 144 178 144C178 143.34 178 142.68 178 142C179.98 141.34 181.96 140.68 184 140C184 139.34 184 138.68 184 138C185.32 138 186.64 138 188 138C188 137.34 188 136.68 188 136C189.32 136 190.64 136 192 136C192 135.34 192 134.68 192 134C192.66 134 193.32 134 194 134C194 133.34 194 132.68 194 132C195.32 132 196.64 132 198 132C198 131.34 198 130.68 198 130C199.32 130 200.64 130 202 130C202 129.34 202 128.68 202 128C203.32 128 204.64 128 206 128C206 127.34 206 126.68 206 126C206.66 126 207.32 126 208 126C208 125.34 208 124.68 208 124C209.32 124 210.64 124 212 124C212 123.34 212 122.68 212 122C213.32 122 214.64 122 216 122C216 121.34 216 120.68 216 120C217.32 120 218.64 120 220 120C220 119.34 220 118.68 220 118C220.66 118 221.32 118 222 118C222 117.34 222 116.68 222 116C223.32 116 224.64 116 226 116C226 115.34 226 114.68 226 114C227.32 114 228.64 114 230 114C230 113.34 230 112.68 230 112C231.98 111.34 233.96 110.68 236 110C236 109.34 236 108.68 236 108C236.99 107.67 237.98 107.34 239 107C238.67 106.34 238.34 105.68 238 105C237.34 105 236.68 105 236 105C236 104.34 236 103.68 236 103C234.68 103 233.36 103 232 103C232 102.34 232 101.68 232 101C230.68 101 229.36 101 228 101C228 100.34 228 99.68 228 99C226.68 99 225.36 99 224 99C224 98.34 224 97.68 224 97C223.34 97 222.68 97 222 97C222 96.34 222 95.68 222 95C220.68 95 219.36 95 218 95C218 94.34 218 93.68 218 93C216.68 93 215.36 93 214 93C214 92.34 214 91.68 214 91C213.01 91 212.02 91 211 91C211 90.34 211 89.68 211 89C210.01 89 209.02 89 208 89C208 88.34 208 87.68 208 87C206.68 87 205.36 87 204 87C204 86.34 204 85.68 204 85C202.68 85 201.36 85 200 85C200 84.34 200 83.68 200 83C199.34 83 198.68 83 198 83C198 82.34 198 81.68 198 81C196.68 81 195.36 81 194 81C194 80.34 194 79.68 194 79C191.36 78.67 188.72 78.34 186 78C186 77.34 186 76.68 186 76C185.34 76 184.68 76 184 76C184 75.34 184 74.68 184 74C182.68 74 181.36 74 180 74C180 73.34 180 72.68 180 72C178.68 72 177.36 72 176 72C176 71.34 176 70.68 176 70C174.68 70 173.36 70 172 70C172 69.34 172 68.68 172 68C171.34 68 170.68 68 170 68C170 67.34 170 66.68 170 66C168.68 66 167.36 66 166 66C166 65.34 166 64.68 166 64C163.69 64 161.38 64 159 64ZM454 119C454 119.66 454 120.32 454 121C452.68 121 451.36 121 450 121C450 121.66 450 122.32 450 123C449.34 123 448.68 123 448 123C448 123.66 448 124.32 448 125C446.68 125 445.36 125 444 125C444 125.66 444 126.32 444 127C442.68 127 441.36 127 440 127C440 127.66 440 128.32 440 129C438.68 129 437.36 129 436 129C436 129.66 436 130.32 436 131C435.34 131 434.68 131 434 131C434 131.66 434 132.32 434 133C432.68 133 431.36 133 430 133C430 133.66 430 134.32 430 135C428.68 135 427.36 135 426 135C426 135.66 426 136.32 426 137C424.35 137.66 422.7 138.32 421 139C421 139.66 421 140.32 421 141C419.68 141 418.36 141 417 141C417 141.66 417 142.32 417 143C415.68 143 414.36 143 413 143C413 143.66 413 144.32 413 145C412.381 145.144 411.762 145.289 411.125 145.438C408.967 145.932 408.967 145.932 407 147C407 147.66 407 148.32 407 149C405.68 149 404.36 149 403 149C403 149.66 403 150.32 403 151C401.68 151 400.36 151 399 151C399 151.66 399 152.32 399 153C398.34 153 397.68 153 397 153C397 153.66 397 154.32 397 155C395.68 155 394.36 155 393 155C393 155.66 393 156.32 393 157C391.68 157 390.36 157 389 157C389 157.66 389 158.32 389 159C387.68 159 386.36 159 385 159C385 159.66 385 160.32 385 161C384.34 161 383.68 161 383 161C383 161.66 383 162.32 383 163C382.01 163.495 382.01 163.495 381 164C382.32 164 383.64 164 385 164C385 164.66 385 165.32 385 166C385.66 166 386.32 166 387 166C387 166.66 387 167.32 387 168C388.32 168 389.64 168 391 168C391 168.66 391 169.32 391 170C392.32 170 393.64 170 395 170C395 170.66 395 171.32 395 172C396.32 172 397.64 172 399 172C399 172.66 399 173.32 399 174C399.66 174 400.32 174 401 174C401 174.66 401 175.32 401 176C402.32 176 403.64 176 405 176C405 176.66 405 177.32 405 178C406.32 178 407.64 178 409 178C409 178.66 409 179.32 409 180C410.32 180 411.64 180 413 180C413 180.66 413 181.32 413 182C413.66 182 414.32 182 415 182C415 182.66 415 183.32 415 184C416.32 184 417.64 184 419 184C419 184.66 419 185.32 419 186C420.32 186 421.64 186 423 186C423 186.66 423 187.32 423 188C423.99 188 424.98 188 426 188C426 188.66 426 189.32 426 190C428.97 190.495 428.97 190.495 432 191C432 191.66 432 192.32 432 193C433.32 193 434.64 193 436 193C436 193.66 436 194.32 436 195C438.97 195.99 438.97 195.99 442 197C442 197.66 442 198.32 442 199C443.32 199 444.64 199 446 199C446 199.66 446 200.32 446 201C447.32 201 448.64 201 450 201C450 201.66 450 202.32 450 203C450.66 203 451.32 203 452 203C452 203.66 452 204.32 452 205C453.32 205 454.64 205 456 205C456 205.66 456 206.32 456 207C457.65 206.34 459.3 205.68 461 205C461 204.34 461 203.68 461 203C462.32 203 463.64 203 465 203C465 202.34 465 201.68 465 201C466.32 201 467.64 201 469 201C469 200.34 469 199.68 469 199C470.98 198.34 472.96 197.68 475 197C475 196.34 475 195.68 475 195C476.32 195 477.64 195 479 195C479 194.34 479 193.68 479 193C480.32 193 481.64 193 483 193C483 192.34 483 191.68 483 191C484.98 190.67 486.96 190.34 489 190C489 189.34 489 188.68 489 188C490.32 188 491.64 188 493 188C493 187.34 493 186.68 493 186C494.32 186 495.64 186 497 186C497 185.34 497 184.68 497 184C497.66 184 498.32 184 499 184C499 183.34 499 182.68 499 182C500.32 182 501.64 182 503 182C503 181.34 503 180.68 503 180C504.32 180 505.64 180 507 180C507 179.34 507 178.68 507 178C507.619 177.856 508.238 177.711 508.875 177.562C511.033 177.068 511.033 177.068 513 176C513 175.34 513 174.68 513 174C514.32 174 515.64 174 517 174C517 173.34 517 172.68 517 172C518.32 172 519.64 172 521 172C521 171.34 521 170.68 521 170C521.66 170 522.32 170 523 170C523 169.34 523 168.68 523 168C524.32 168 525.64 168 527 168C527 167.34 527 166.68 527 166C528.32 166 529.64 166 531 166C531 165.34 531 164.68 531 164C532.32 163.67 533.64 163.34 535 163C534.34 163 533.68 163 533 163C533 162.34 533 161.68 533 161C531.68 161 530.36 161 529 161C529 160.34 529 159.68 529 159C526.03 158.01 526.03 158.01 523 157C523 156.34 523 155.68 523 155C521.68 155 520.36 155 519 155C519 154.34 519 153.68 519 153C517.68 153 516.36 153 515 153C515 152.34 515 151.68 515 151C514.34 151 513.68 151 513 151C513 150.34 513 149.68 513 149C511.68 149 510.36 149 509 149C509 148.34 509 147.68 509 147C507.68 147 506.36 147 505 147C505 146.34 505 145.68 505 145C503.68 145 502.36 145 501 145C501 144.34 501 143.68 501 143C500.34 143 499.68 143 499 143C499 142.34 499 141.68 499 141C497.68 141 496.36 141 495 141C495 140.34 495 139.68 495 139C493.68 139 492.36 139 491 139C491 138.34 491 137.68 491 137C489.68 137 488.36 137 487 137C487 136.34 487 135.68 487 135C486.34 135 485.68 135 485 135C485 134.34 485 133.68 485 133C483.68 133 482.36 133 481 133C481 132.34 481 131.68 481 131C479.68 131 478.36 131 477 131C477 130.34 477 129.68 477 129C474.185 126.723 474.185 126.723 471 127C471 126.34 471 125.68 471 125C469.68 125 468.36 125 467 125C467 124.34 467 123.68 467 123C465.68 123 464.36 123 463 123C463 122.34 463 121.68 463 121C462.01 121 461.02 121 460 121C460 120.34 460 119.68 460 119C458.02 119 456.04 119 454 119ZM76 125C76 227.96 76 330.92 76 437C76.66 437 77.32 437 78 437C78 437.66 78 438.32 78 439C78.66 439 79.32 439 80 439C80 439.66 80 440.32 80 441C81.32 441 82.64 441 84 441C84 441.66 84 442.32 84 443C85.32 443 86.64 443 88 443C88 443.66 88 444.32 88 445C89.32 445 90.64 445 92 445C92 445.66 92 446.32 92 447C92.66 447 93.32 447 94 447C94 447.66 94 448.32 94 449C95.32 449 96.64 449 98 449C98 449.66 98 450.32 98 451C99.32 451 100.64 451 102 451C102 451.66 102 452.32 102 453C103.98 453.66 105.96 454.32 108 455C108 455.66 108 456.32 108 457C109.32 457 110.64 457 112 457C112 457.66 112 458.32 112 459C113.32 459 114.64 459 116 459C116 459.66 116 460.32 116 461C118.815 463.277 118.815 463.277 122 463C122 463.66 122 464.32 122 465C123.32 465 124.64 465 126 465C126 465.66 126 466.32 126 467C126.99 467 127.98 467 129 467C129 467.66 129 468.32 129 469C130.98 469.66 132.96 470.32 135 471C135 471.66 135 472.32 135 473C136.32 473 137.64 473 139 473C139 473.66 139 474.32 139 475C140.32 475 141.64 475 143 475C143 475.66 143 476.32 143 477C143.66 477 144.32 477 145 477C145 477.66 145 478.32 145 479C146.32 479 147.64 479 149 479C149 479.66 149 480.32 149 481C150.32 481 151.64 481 153 481C153 481.66 153 482.32 153 483C154.32 483 155.64 483 157 483C157 483.66 157 484.32 157 485C157.66 485 158.32 485 159 485C159 485.66 159 486.32 159 487C161.64 487.33 164.28 487.66 167 488C167 488.66 167 489.32 167 490C168.98 490.66 170.96 491.32 173 492C173 492.66 173 493.32 173 494C174.32 494 175.64 494 177 494C177 494.66 177 495.32 177 496C178.32 496 179.64 496 181 496C181 496.66 181 497.32 181 498C183.815 500.277 183.815 500.277 187 500C187 500.66 187 501.32 187 502C188.32 502 189.64 502 191 502C191 502.66 191 503.32 191 504C192.32 504 193.64 504 195 504C195 504.66 195 505.32 195 506C197.815 508.277 197.815 508.277 201 508C201 508.66 201 509.32 201 510C202.32 510 203.64 510 205 510C205 510.66 205 511.32 205 512C206.98 512.66 208.96 513.32 211 514C211 514.66 211 515.32 211 516C212.32 516 213.64 516 215 516C215 516.66 215 517.32 215 518C216.32 518 217.64 518 219 518C219 518.66 219 519.32 219 520C220.98 520.66 222.96 521.32 225 522C225 522.66 225 523.32 225 524C225.99 524 226.98 524 228 524C228 524.66 228 525.32 228 526C229.32 526 230.64 526 232 526C232 526.66 232 527.32 232 528C233.32 528 234.64 528 236 528C236 528.66 236 529.32 236 530C236.66 530 237.32 530 238 530C238 530.66 238 531.32 238 532C239.32 532 240.64 532 242 532C242 532.66 242 533.32 242 534C243.32 534 244.64 534 246 534C246 534.66 246 535.32 246 536C247.32 536 248.64 536 250 536C250.33 536.66 250.66 537.32 251 538C251 508.96 251 479.92 251 450C250.34 450 249.68 450 249 450C249 449.34 249 448.68 249 448C247.02 447.34 245.04 446.68 243 446C243 445.34 243 444.68 243 444C241.68 444 240.36 444 239 444C239 443.34 239 442.68 239 442C238.01 442 237.02 442 236 442C236 441.34 236 440.68 236 440C234.68 440 233.36 440 232 440C232 439.34 232 438.68 232 438C230.02 437.34 228.04 436.68 226 436C226 435.34 226 434.68 226 434C224.68 434 223.36 434 222 434C222 433.34 222 432.68 222 432C220.68 432 219.36 432 218 432C218 431.34 218 430.68 218 430C216.02 429.34 214.04 428.68 212 428C212 427.34 212 426.68 212 426C210.68 426 209.36 426 208 426C208 425.34 208 424.68 208 424C206.68 424 205.36 424 204 424C204 423.34 204 422.68 204 422C202.68 422 201.36 422 200 422C200 421.34 200 420.68 200 420C199.34 420 198.68 420 198 420C198 419.34 198 418.68 198 418C196.68 418 195.36 418 194 418C194 417.34 194 416.68 194 416C192.68 416 191.36 416 190 416C190 415.34 190 414.68 190 414C188.68 414 187.36 414 186 414C186 413.34 186 412.68 186 412C185.01 412 184.02 412 183 412C183 411.34 183 410.68 183 410C182.01 410 181.02 410 180 410C180 409.34 180 408.68 180 408C178.68 408 177.36 408 176 408C176 407.34 176 406.68 176 406C174.68 406 173.36 406 172 406C172 405.34 172 404.68 172 404C170.68 404 169.36 404 168 404C168 403.34 168 402.68 168 402C167.34 402 166.68 402 166 402C166 401.34 166 400.68 166 400C164.68 400 163.36 400 162 400C162 399.34 162 398.68 162 398C160.68 398 159.36 398 158 398C158 397.34 158 396.68 158 396C157.34 396 156.68 396 156 396C156 395.34 156 394.68 156 394C155.34 394 154.68 394 154 394C154 393.34 154 392.68 154 392C153.34 392 152.68 392 152 392C152 318.41 152 244.82 152 169C148.298 166.776 148.298 166.776 145 167C145 166.34 145 165.68 145 165C144.01 165 143.02 165 142 165C142 164.34 142 163.68 142 163C141.01 163 140.02 163 139 163C139 162.34 139 161.68 139 161C137.68 161 136.36 161 135 161C135 160.34 135 159.68 135 159C133.02 158.34 131.04 157.68 129 157C129 156.34 129 155.68 129 155C127.68 155 126.36 155 125 155C125 154.34 125 153.68 125 153C123.68 153 122.36 153 121 153C121 152.34 121 151.68 121 151C120.34 151 119.68 151 119 151C119 150.34 119 149.68 119 149C117.68 149 116.36 149 115 149C115 148.34 115 147.68 115 147C113.68 147 112.36 147 111 147C111 146.34 111 145.68 111 145C109.68 145 108.36 145 107 145C107 144.34 107 143.68 107 143C106.34 143 105.68 143 105 143C105 142.34 105 141.68 105 141C103.68 141 102.36 141 101 141C101 140.34 101 139.68 101 139C99.68 139 98.36 139 97 139C97 138.34 97 137.68 97 137C95.68 137 94.36 137 93 137C93 136.34 93 135.68 93 135C92.34 135 91.68 135 91 135C91 134.34 91 133.68 91 133C89.68 133 88.36 133 87 133C87 132.34 87 131.68 87 131C85.68 131 84.36 131 83 131C83 130.34 83 129.68 83 129C82.0306 128.711 81.0612 128.423 80.0625 128.125C77 127 77 127 76 125ZM250 125C250 125.66 250 126.32 250 127C248.68 127 247.36 127 246 127C246 127.66 246 128.32 246 129C244.68 129 243.36 129 242 129C242 129.66 242 130.32 242 131C240.68 131 239.36 131 238 131C238 131.66 238 132.32 238 133C237.34 133 236.68 133 236 133C236 133.66 236 134.32 236 135C234.68 135 233.36 135 232 135C232 135.66 232 136.32 232 137C230.68 137 229.36 137 228 137C228 137.66 228 138.32 228 139C226.35 139.66 224.7 140.32 223 141C223 141.66 223 142.32 223 143C221.68 143 220.36 143 219 143C219 143.66 219 144.32 219 145C217.68 145 216.36 145 215 145C215 145.66 215 146.32 215 147C213.02 147.66 211.04 148.32 209 149C209 149.66 209 150.32 209 151C207.68 151 206.36 151 205 151C205 151.66 205 152.32 205 153C203.68 153 202.36 153 201 153C201 153.66 201 154.32 201 155C200.34 155 199.68 155 199 155C199 155.66 199 156.32 199 157C197.68 157 196.36 157 195 157C195 157.66 195 158.32 195 159C193.68 159 192.36 159 191 159C191 159.66 191 160.32 191 161C189.68 161 188.36 161 187 161C187 161.66 187 162.32 187 163C186.34 163 185.68 163 185 163C185 163.66 185 164.32 185 165C183.68 165 182.36 165 181 165C181 165.66 181 166.32 181 167C179.68 167 178.36 167 177 167C177 167.66 177 168.32 177 169C175.68 169 174.36 169 173 169C173 235.33 173 301.66 173 370C173.495 369.01 173.495 369.01 174 368C175.32 368 176.64 368 178 368C178 367.34 178 366.68 178 366C179.32 366 180.64 366 182 366C182 365.34 182 364.68 182 364C182.66 364 183.32 364 184 364C184 363.34 184 362.68 184 362C185.32 362 186.64 362 188 362C188 361.34 188 360.68 188 360C189.32 360 190.64 360 192 360C192 359.34 192 358.68 192 358C193.32 358 194.64 358 196 358C196 357.34 196 356.68 196 356C196.66 356 197.32 356 198 356C198 355.34 198 354.68 198 354C199.32 354 200.64 354 202 354C202 353.34 202 352.68 202 352C203.32 352 204.64 352 206 352C206 351.34 206 350.68 206 350C207.32 350 208.64 350 210 350C210 349.34 210 348.68 210 348C210.66 348 211.32 348 212 348C212 347.34 212 346.68 212 346C213.32 346 214.64 346 216 346C216 345.34 216 344.68 216 344C217.32 344 218.64 344 220 344C220 343.34 220 342.68 220 342C222.97 341.01 222.97 341.01 226 340C226 339.34 226 338.68 226 338C227.32 338 228.64 338 230 338C230 337.34 230 336.68 230 336C231.32 336 232.64 336 234 336C234 335.34 234 334.68 234 334C236.475 333.01 236.475 333.01 239 332C239 331.34 239 330.68 239 330C240.32 330 241.64 330 243 330C243 329.34 243 328.68 243 328C244.32 328 245.64 328 247 328C247 327.34 247 326.68 247 326C248.32 325.67 249.64 325.34 251 325C251 259 251 193 251 125C250.67 125 250.34 125 250 125ZM369 180C368.931 191.57 368.877 203.139 368.845 214.709C368.829 220.081 368.808 225.452 368.774 230.824C368.741 236.005 368.723 241.185 368.715 246.366C368.71 248.346 368.699 250.326 368.683 252.306C368.661 255.072 368.658 257.837 368.659 260.603C368.649 261.428 368.638 262.253 368.627 263.103C368.605 265.609 368.605 265.609 369 269C371.815 271.277 371.815 271.277 375 271C375 271.66 375 272.32 375 273C376.32 273 377.64 273 379 273C379 273.66 379 274.32 379 275C380.32 275 381.64 275 383 275C383 275.66 383 276.32 383 277C383.66 277 384.32 277 385 277C385 277.66 385 278.32 385 279C386.32 279 387.64 279 389 279C389 279.66 389 280.32 389 281C390.32 281 391.64 281 393 281C393 281.66 393 282.32 393 283C394.32 283 395.64 283 397 283C397 283.66 397 284.32 397 285C397.66 285 398.32 285 399 285C399 285.66 399 286.32 399 287C400.32 287 401.64 287 403 287C403 287.66 403 288.32 403 289C404.196 289.412 405.393 289.825 406.625 290.25C410.494 291.698 413.61 293.62 417 296C421.212 298.877 421.212 298.877 426 300C426 300.66 426 301.32 426 302C427.32 302 428.64 302 430 302C430 302.66 430 303.32 430 304C431.32 304 432.64 304 434 304C434 304.66 434 305.32 434 306C435.98 306.66 437.96 307.32 440 308C440 308.66 440 309.32 440 310C441.32 310 442.64 310 444 310C444 310.66 444 311.32 444 312C444.99 312 445.98 312 447 312C447.023 300.822 447.041 289.643 447.052 278.465C447.057 273.274 447.064 268.084 447.075 262.894C447.086 257.888 447.092 252.883 447.095 247.877C447.097 245.964 447.1 244.051 447.106 242.138C447.113 239.466 447.114 236.794 447.114 234.122C447.119 232.926 447.119 232.926 447.124 231.707C447.205 227.724 447.205 227.724 446 224C445.01 224 444.02 224 443 224C443 223.34 443 222.68 443 222C441.68 222 440.36 222 439 222C439 221.34 439 220.68 439 220C438.01 220 437.02 220 436 220C436 219.34 436 218.68 436 218C434.68 218 433.36 218 432 218C432 217.34 432 216.68 432 216C431.34 216 430.68 216 430 216C430 215.34 430 214.68 430 214C428.68 214 427.36 214 426 214C426 213.34 426 212.68 426 212C424.68 212 423.36 212 422 212C422 211.34 422 210.68 422 210C421.34 210 420.68 210 420 210C420 209.34 420 208.68 420 208C418.68 208 417.36 208 416 208C416 207.34 416 206.68 416 206C414.68 206 413.36 206 412 206C412 205.34 412 204.68 412 204C410.68 204 409.36 204 408 204C408 203.34 408 202.68 408 202C407.34 202 406.68 202 406 202C406 201.34 406 200.68 406 200C404.68 200 403.36 200 402 200C402 199.34 402 198.68 402 198C400.68 198 399.36 198 398 198C398 197.34 398 196.68 398 196C396.68 196 395.36 196 394 196C394 195.34 394 194.68 394 194C393.34 194 392.68 194 392 194C392 193.34 392 192.68 392 192C390.68 192 389.36 192 388 192C388 191.34 388 190.68 388 190C386.68 190 385.36 190 384 190C384 189.34 384 188.68 384 188C383.01 188 382.02 188 381 188C381 187.34 381 186.68 381 186C380.01 186 379.02 186 378 186C378 185.34 378 184.68 378 184C376.68 184 375.36 184 374 184C374 183.34 374 182.68 374 182C372.68 182 371.36 182 370 182C369.67 181.34 369.34 180.68 369 180ZM543 180C543 180.66 543 181.32 543 182C542.34 182 541.68 182 541 182C541 182.66 541 183.32 541 184C539.68 184 538.36 184 537 184C537 184.66 537 185.32 537 186C535.68 186 534.36 186 533 186C533 186.66 533 187.32 533 188C531.68 188 530.36 188 529 188C529 188.66 529 189.32 529 190C528.34 190 527.68 190 527 190C527 190.66 527 191.32 527 192C526.01 192 525.02 192 524 192C524 192.66 524 193.32 524 194C522.68 194 521.36 194 520 194C520 194.66 520 195.32 520 196C519.01 196 518.02 196 517 196C517 196.66 517 197.32 517 198C516.01 198 515.02 198 514 198C514 198.66 514 199.32 514 200C512.68 200 511.36 200 510 200C510 200.66 510 201.32 510 202C508.68 202 507.36 202 506 202C506 202.66 506 203.32 506 204C505.01 204 504.02 204 503 204C503 204.66 503 205.32 503 206C502.01 206 501.02 206 500 206C500 206.66 500 207.32 500 208C498.68 208 497.36 208 496 208C496 208.66 496 209.32 496 210C494.68 210 493.36 210 492 210C492 210.66 492 211.32 492 212C491.34 212 490.68 212 490 212C490 212.66 490 213.32 490 214C488.68 214 487.36 214 486 214C486 214.66 486 215.32 486 216C484.68 216 483.36 216 482 216C482 216.66 482 217.32 482 218C480.68 218 479.36 218 478 218C478 218.66 478 219.32 478 220C477.34 220 476.68 220 476 220C476 220.66 476 221.32 476 222C474.68 222 473.36 222 472 222C472 222.66 472 223.32 472 224C470.68 224 469.36 224 468 224C468 253.04 468 282.08 468 312C468.99 312 469.98 312 471 312C471 311.34 471 310.68 471 310C473.97 309.01 473.97 309.01 477 308C477 307.34 477 306.68 477 306C478.32 306 479.64 306 481 306C481 305.34 481 304.68 481 304C482.32 304 483.64 304 485 304C485 303.34 485 302.68 485 302C487.97 301.01 487.97 301.01 491 300C491 299.34 491 298.68 491 298C492.32 298 493.64 298 495 298C495 297.34 495 296.68 495 296C496.32 296 497.64 296 499 296C499 295.34 499 294.68 499 294C499.66 294 500.32 294 501 294C501 293.34 501 292.68 501 292C502.32 292 503.64 292 505 292C505 291.34 505 290.68 505 290C507.31 289.67 509.62 289.34 512 289C512 288.34 512 287.68 512 287C512.99 287 513.98 287 515 287C515 286.34 515 285.68 515 285C516.32 285 517.64 285 519 285C519 284.34 519 283.68 519 283C520.32 283 521.64 283 523 283C523 282.34 523 281.68 523 281C523.66 281 524.32 281 525 281C525 280.34 525 279.68 525 279C526.32 279 527.64 279 529 279C529 278.34 529 277.68 529 277C530.32 277 531.64 277 533 277C533 276.34 533 275.68 533 275C533.99 275 534.98 275 536 275C536 274.34 536 273.68 536 273C536.99 273 537.98 273 539 273C539 272.34 539 271.68 539 271C539.99 271 540.98 271 542 271C542 270.34 542 269.68 542 269C542.66 269 543.32 269 544 269C544 239.63 544 210.26 544 180C543.67 180 543.34 180 543 180ZM357 287C357 287.66 357 288.32 357 289C355.68 289 354.36 289 353 289C353 289.66 353 290.32 353 291C351.68 291 350.36 291 349 291C349 291.66 349 292.32 349 293C348.34 293 347.68 293 347 293C347 293.66 347 294.32 347 295C345.68 295 344.36 295 343 295C343 295.66 343 296.32 343 297C341.68 297 340.36 297 339 297C339 297.66 339 298.32 339 299C337.68 299 336.36 299 335 299C335 299.66 335 300.32 335 301C334.34 301 333.68 301 333 301C333 301.66 333 302.32 333 303C331.68 303 330.36 303 329 303C329 303.66 329 304.32 329 305C328.01 305 327.02 305 326 305C326 305.66 326 306.32 326 307C324.68 307 323.36 307 322 307C322 307.66 322 308.32 322 309C320.02 309.66 318.04 310.32 316 311C316 311.66 316 312.32 316 313C314.68 313 313.36 313 312 313C312 313.66 312 314.32 312 315C310.68 315 309.36 315 308 315C308 315.66 308 316.32 308 317C307.34 317 306.68 317 306 317C306 317.66 306 318.32 306 319C304.68 319 303.36 319 302 319C302 319.66 302 320.32 302 321C300.68 321 299.36 321 298 321C298 321.66 298 322.32 298 323C297.01 323 296.02 323 295 323C295 323.66 295 324.32 295 325C294.01 325 293.02 325 292 325C292 325.66 292 326.32 292 327C290.68 327 289.36 327 288 327C288 327.66 288 328.32 288 329C286.68 329 285.36 329 284 329C284 329.66 284 330.32 284 331C283.381 331.144 282.762 331.289 282.125 331.438C279.967 331.932 279.967 331.932 278 333C278 333.66 278 334.32 278 335C276.68 335 275.36 335 274 335C274 335.66 274 336.32 274 337C272.68 337 271.36 337 270 337C270 337.66 270 338.32 270 339C269.34 339 268.68 339 268 339C268 339.66 268 340.32 268 341C266.68 341 265.36 341 264 341C264 341.66 264 342.32 264 343C262.68 343 261.36 343 260 343C260 343.66 260 344.32 260 345C258.68 345 257.36 345 256 345C256 345.66 256 346.32 256 347C255.34 347 254.68 347 254 347C254 347.66 254 348.32 254 349C252.68 349 251.36 349 250 349C250 349.66 250 350.32 250 351C248.68 351 247.36 351 246 351C246 351.66 246 352.32 246 353C244.68 353 243.36 353 242 353C242 353.66 242 354.32 242 355C241.34 355 240.68 355 240 355C240 355.66 240 356.32 240 357C238.68 357 237.36 357 236 357C236 357.66 236 358.32 236 359C234.68 359 233.36 359 232 359C232 359.66 232 360.32 232 361C230.937 361.402 230.937 361.402 229.852 361.812C226.905 363.04 224.17 364.46 221.375 366C220.434 366.516 219.493 367.031 218.523 367.562C216.639 368.636 214.804 369.797 213 371C213 371.66 213 372.32 213 373C211.68 373 210.36 373 209 373C209 373.66 209 374.32 209 375C207.68 375 206.36 375 205 375C205 375.66 205 376.32 205 377C202.03 377.495 202.03 377.495 199 378C199 378.66 199 379.32 199 380C197.68 380 196.36 380 195 380C195 380.66 195 381.32 195 382C193.68 382 192.36 382 191 382C191 382.66 191 383.32 191 384C190.34 384 189.68 384 189 384C189 384.66 189 385.32 189 386C187.68 386 186.36 386 185 386C185 386.66 185 387.32 185 388C186.32 388.33 187.64 388.66 189 389C189 389.66 189 390.32 189 391C190.32 391 191.64 391 193 391C193 391.66 193 392.32 193 393C194.32 393 195.64 393 197 393C197 393.66 197 394.32 197 395C198.32 395 199.64 395 201 395C201.33 395.99 201.66 396.98 202 398C205.379 400.466 206.706 401 211 401C211 401.66 211 402.32 211 403C212.32 403 213.64 403 215 403C215 403.66 215 404.32 215 405C217.815 407.277 217.815 407.277 221 407C221 407.66 221 408.32 221 409C222.32 409 223.64 409 225 409C225 409.66 225 410.32 225 411C225.99 411 226.98 411 228 411C228 411.66 228 412.32 228 413C229.32 413 230.64 413 232 413C232 413.66 232 414.32 232 415C232.66 415 233.32 415 234 415C234 415.66 234 416.32 234 417C235.32 417 236.64 417 238 417C238 417.66 238 418.32 238 419C239.32 419 240.64 419 242 419C242 419.66 242 420.32 242 421C243.32 421 244.64 421 246 421C246 421.66 246 422.32 246 423C246.66 423 247.32 423 248 423C248 423.66 248 424.32 248 425C249.32 425 250.64 425 252 425C252 425.66 252 426.32 252 427C253.32 427 254.64 427 256 427C256 427.66 256 428.32 256 429C257.32 429 258.64 429 260 429C260 429.66 260 430.32 260 431C260.99 431 261.98 431 263 431C263 430.34 263 429.68 263 429C263.66 429 264.32 429 265 429C265 428.34 265 427.68 265 427C266.32 427 267.64 427 269 427C269 426.34 269 425.68 269 425C270.32 425 271.64 425 273 425C273 424.34 273 423.68 273 423C274.32 423 275.64 423 277 423C277 422.34 277 421.68 277 421C278.98 420.34 280.96 419.68 283 419C283 418.34 283 417.68 283 417C284.32 417 285.64 417 287 417C287 416.34 287 415.68 287 415C288.32 415 289.64 415 291 415C291 414.34 291 413.68 291 413C292.98 412.34 294.96 411.68 297 411C297 410.34 297 409.68 297 409C298.32 409 299.64 409 301 409C301 408.34 301 407.68 301 407C302.32 407 303.64 407 305 407C305 406.34 305 405.68 305 405C306.98 404.34 308.96 403.68 311 403C311 402.34 311 401.68 311 401C312.32 401 313.64 401 315 401C315 400.34 315 399.68 315 399C316.32 399 317.64 399 319 399C319 398.34 319 397.68 319 397C320.98 396.34 322.96 395.68 325 395C325 394.34 325 393.68 325 393C326.32 393 327.64 393 329 393C329 392.34 329 391.68 329 391C330.32 391 331.64 391 333 391C333 390.34 333 389.68 333 389C335.475 388.505 335.475 388.505 338 388C338 387.34 338 386.68 338 386C339.32 386 340.64 386 342 386C342 385.34 342 384.68 342 384C343.32 384 344.64 384 346 384C346 383.34 346 382.68 346 382C346.99 382 347.98 382 349 382C349 381.34 349 380.68 349 380C349.99 380 350.98 380 352 380C352 379.34 352 378.68 352 378C353.32 378 354.64 378 356 378C356 377.34 356 376.68 356 376C357.32 376 358.64 376 360 376C360 375.34 360 374.68 360 374C360.99 374 361.98 374 363 374C363 373.34 363 372.68 363 372C363.99 372 364.98 372 366 372C366 371.34 366 370.68 366 370C367.32 370 368.64 370 370 370C370 369.34 370 368.68 370 368C371.32 368 372.64 368 374 368C374 367.34 374 366.68 374 366C375.98 365.34 377.96 364.68 380 364C380 363.34 380 362.68 380 362C381.32 362 382.64 362 384 362C384 361.34 384 360.68 384 360C385.32 360 386.64 360 388 360C388 359.34 388 358.68 388 358C389.98 357.34 391.96 356.68 394 356C394 355.34 394 354.68 394 354C395.32 354 396.64 354 398 354C398 353.34 398 352.68 398 352C399.32 352 400.64 352 402 352C402 351.34 402 350.68 402 350C402.66 350 403.32 350 404 350C404 349.34 404 348.68 404 348C405.32 348 406.64 348 408 348C408 347.34 408 346.68 408 346C409.32 346 410.64 346 412 346C412 345.34 412 344.68 412 344C413.32 344 414.64 344 416 344C416 343.34 416 342.68 416 342C417.98 341.34 419.96 340.68 422 340C422 339.34 422 338.68 422 338C423.32 338 424.64 338 426 338C426 337.34 426 336.68 426 336C427.32 336 428.64 336 430 336C430 335.34 430 334.68 430 334C431.98 333.34 433.96 332.68 436 332C435.34 331.67 434.68 331.34 434 331C434 330.34 434 329.68 434 329C433.34 329 432.68 329 432 329C432 328.34 432 327.68 432 327C430.68 327 429.36 327 428 327C428 326.34 428 325.68 428 325C426.68 325 425.36 325 424 325C424 324.34 424 323.68 424 323C422.68 323 421.36 323 420 323C420 322.34 420 321.68 420 321C419.34 321 418.68 321 418 321C418 320.34 418 319.68 418 319C416.68 319 415.36 319 414 319C414 318.34 414 317.68 414 317C412.68 317 411.36 317 410 317C410 316.34 410 315.68 410 315C408.68 315 407.36 315 406 315C406 314.34 406 313.68 406 313C405.34 313 404.68 313 404 313C404 312.34 404 311.68 404 311C402.68 311 401.36 311 400 311C400 310.34 400 309.68 400 309C398.68 309 397.36 309 396 309C396 308.34 396 307.68 396 307C394.68 307 393.36 307 392 307C392 306.34 392 305.68 392 305C391.34 305 390.68 305 390 305C390 304.34 390 303.68 390 303C388.68 303 387.36 303 386 303C386 302.34 386 301.68 386 301C384.68 301 383.36 301 382 301C382 300.34 382 299.68 382 299C381.01 299 380.02 299 379 299C379 298.34 379 297.68 379 297C378.01 297 377.02 297 376 297C376 296.34 376 295.68 376 295C374.68 295 373.36 295 372 295C372 294.34 372 293.68 372 293C370.68 293 369.36 293 368 293C368 292.34 368 291.68 368 291C367.34 291 366.68 291 366 291C366 290.34 366 289.68 366 289C364.68 289 363.36 289 362 289C362 288.34 362 287.68 362 287C360.35 287 358.7 287 357 287ZM446 349C446 349.66 446 350.32 446 351C444.68 351 443.36 351 442 351C442 351.66 442 352.32 442 353C440.68 353 439.36 353 438 353C438 353.66 438 354.32 438 355C437.34 355 436.68 355 436 355C436 355.66 436 356.32 436 357C434.68 357 433.36 357 432 357C432 357.66 432 358.32 432 359C430.68 359 429.36 359 428 359C428 359.66 428 360.32 428 361C427.464 361.083 426.928 361.165 426.375 361.25C423.808 361.939 423.808 361.939 421.188 363.875C417.842 366.106 414.719 367.512 411 369C411 369.66 411 370.32 411 371C410.34 371 409.68 371 409 371C409 371.66 409 372.32 409 373C407.68 373 406.36 373 405 373C405 373.66 405 374.32 405 375C403.68 375 402.36 375 401 375C401 375.66 401 376.32 401 377C399.02 377.33 397.04 377.66 395 378C395 378.66 395 379.32 395 380C393.68 380 392.36 380 391 380C391 380.66 391 381.32 391 382C389.68 382 388.36 382 387 382C387 382.66 387 383.32 387 384C385.68 384 384.36 384 383 384C383 384.66 383 385.32 383 386C382.34 386 381.68 386 381 386C381 386.66 381 387.32 381 388C379.68 388 378.36 388 377 388C377 388.66 377 389.32 377 390C375.68 390 374.36 390 373 390C373 390.66 373 391.32 373 392C371.68 392 370.36 392 369 392C369 392.66 369 393.32 369 394C368.34 394 367.68 394 367 394C367 394.66 367 395.32 367 396C365.68 396 364.36 396 363 396C363 396.66 363 397.32 363 398C361.68 398 360.36 398 359 398C359 398.66 359 399.32 359 400C357.68 400 356.36 400 355 400C355 400.66 355 401.32 355 402C354.34 402 353.68 402 353 402C353 402.66 353 403.32 353 404C351.68 404 350.36 404 349 404C349 404.66 349 405.32 349 406C347.68 406 346.36 406 345 406C345 406.66 345 407.32 345 408C343.68 408 342.36 408 341 408C341 408.66 341 409.32 341 410C340.34 410 339.68 410 339 410C339 410.66 339 411.32 339 412C337.68 412 336.36 412 335 412C335 412.66 335 413.32 335 414C333.68 414 332.36 414 331 414C331 414.66 331 415.32 331 416C329.68 416 328.36 416 327 416C327 416.66 327 417.32 327 418C326.34 418 325.68 418 325 418C325 418.66 325 419.32 325 420C324.01 420 323.02 420 322 420C322 420.66 322 421.32 322 422C320.68 422 319.36 422 318 422C318 422.66 318 423.32 318 424C316.68 424 315.36 424 314 424C314 424.66 314 425.32 314 426C313.34 426 312.68 426 312 426C312 426.66 312 427.32 312 428C310.68 428 309.36 428 308 428C308 428.66 308 429.32 308 430C306.68 430 305.36 430 304 430C304 430.66 304 431.32 304 432C302.68 432 301.36 432 300 432C300 432.66 300 433.32 300 434C299.34 434 298.68 434 298 434C298 434.66 298 435.32 298 436C296.68 436 295.36 436 294 436C294 436.66 294 437.32 294 438C292.68 438 291.36 438 290 438C290 438.66 290 439.32 290 440C288.68 440 287.36 440 286 440C286 440.66 286 441.32 286 442C285.34 442 284.68 442 284 442C284 442.66 284 443.32 284 444C282.68 444 281.36 444 280 444C280 444.66 280 445.32 280 446C278.68 446 277.36 446 276 446C276 446.66 276 447.32 276 448C274.68 448 273.36 448 272 448C272 477.7 272 507.4 272 538C272.495 537.01 272.495 537.01 273 536C274.32 536 275.64 536 277 536C277 535.34 277 534.68 277 534C277.66 534 278.32 534 279 534C279 533.34 279 532.68 279 532C280.32 532 281.64 532 283 532C283 531.34 283 530.68 283 530C284.32 530 285.64 530 287 530C287 529.34 287 528.68 287 528C288.32 528 289.64 528 291 528C291 527.34 291 526.68 291 526C291.66 526 292.32 526 293 526C293 525.34 293 524.68 293 524C294.32 524 295.64 524 297 524C297 523.34 297 522.68 297 522C298.32 522 299.64 522 301 522C301 521.34 301 520.68 301 520C302.32 520 303.64 520 305 520C305 519.34 305 518.68 305 518C305.66 518 306.32 518 307 518C307 517.34 307 516.68 307 516C308.32 516 309.64 516 311 516C311 515.34 311 514.68 311 514C312.32 514 313.64 514 315 514C315 513.34 315 512.68 315 512C317.97 511.01 317.97 511.01 321 510C321 509.34 321 508.68 321 508C322.32 508 323.64 508 325 508C325 507.34 325 506.68 325 506C326.32 506 327.64 506 329 506C329 505.34 329 504.68 329 504C331.97 503.01 331.97 503.01 335 502C335 501.34 335 500.68 335 500C335.567 499.885 336.134 499.771 336.719 499.652C339.246 498.93 341.225 497.875 343.5 496.562C346.299 494.957 349.1 493.417 352 492C352 491.34 352 490.68 352 490C353.32 490 354.64 490 356 490C356 489.34 356 488.68 356 488C357.98 487.67 359.96 487.34 362 487C362 486.34 362 485.68 362 485C363.32 485 364.64 485 366 485C366 484.34 366 483.68 366 483C367.32 483 368.64 483 370 483C370 482.34 370 481.68 370 481C370.66 481 371.32 481 372 481C372 480.34 372 479.68 372 479C373.32 479 374.64 479 376 479C376 478.34 376 477.68 376 477C377.32 477 378.64 477 380 477C380 476.34 380 475.68 380 475C380.619 474.856 381.238 474.711 381.875 474.562C384.033 474.068 384.033 474.068 386 473C386 472.34 386 471.68 386 471C387.32 471 388.64 471 390 471C390 470.34 390 469.68 390 469C391.32 469 392.64 469 394 469C394 468.34 394 467.68 394 467C394.66 467 395.32 467 396 467C396 466.34 396 465.68 396 465C397.32 465 398.64 465 400 465C400 464.34 400 463.68 400 463C401.32 463 402.64 463 404 463C404 462.34 404 461.68 404 461C405.32 461 406.64 461 408 461C408 460.34 408 459.68 408 459C408.66 459 409.32 459 410 459C410 458.34 410 457.68 410 457C411.32 457 412.64 457 414 457C414 456.34 414 455.68 414 455C415.32 455 416.64 455 418 455C418 454.34 418 453.68 418 453C419.32 453 420.64 453 422 453C422 452.34 422 451.68 422 451C422.66 451 423.32 451 424 451C424 450.34 424 449.68 424 449C425.32 449 426.64 449 428 449C428 448.34 428 447.68 428 447C429.32 447 430.64 447 432 447C432 446.34 432 445.68 432 445C433.32 445 434.64 445 436 445C436.33 443.68 436.66 442.36 437 441C438.32 441 439.64 441 441 441C441 440.34 441 439.68 441 439C442.32 439 443.64 439 445 439C445 438.34 445 437.68 445 437C445.66 437 446.32 437 447 437C447 407.96 447 378.92 447 349C446.67 349 446.34 349 446 349Z" fill="white"/>
</svg>
