<svg width="636" height="636" viewBox="0 0 636 636" fill="none" xmlns="http://www.w3.org/2000/svg">
<path fill-rule="evenodd" clip-rule="evenodd" d="M508.8 127.2H127.2V508.8H508.8V127.2ZM318.646 411.039C318.646 443.137 299.536 461.828 266.591 461.828C235.127 461.828 216.016 443.137 215.172 414.524V413.68H246.108V414.313C246.742 426.033 253.711 434.268 266.169 434.268C279.685 434.268 286.76 426.138 286.76 410.828V305.56H318.646V411.039ZM465.28 412.517C465.28 442.714 441.839 461.828 403.829 461.828C367.402 461.828 344.384 444.406 342.59 417.374L342.483 415.684H373.21L373.314 416.74C374.477 428.145 386.83 435.853 404.674 435.853C421.673 435.853 433.393 427.723 433.393 416.002V415.896C433.393 405.867 425.896 400.27 406.997 396.363L390.947 393.091C359.271 386.65 345.651 371.867 345.651 348.744V348.637C345.651 320.34 369.936 301.652 403.723 301.652C439.306 301.652 460.212 320.447 462.217 345.892L462.324 347.266H432.338L432.126 345.999C430.33 335.124 419.773 327.522 403.723 327.522C387.991 327.626 377.537 334.806 377.537 346.21V346.315C377.537 356.241 384.93 362.154 402.878 365.85L419.032 369.122C451.237 375.774 465.28 388.654 465.28 412.413V412.517Z" fill="white"/>
</svg>
