<svg width="636" height="636" viewBox="0 0 636 636" fill="none" xmlns="http://www.w3.org/2000/svg">
<path d="M585.439 487.463C550.86 486.601 524.061 490.061 501.584 499.568C495.101 502.16 484.726 502.163 483.861 510.374C487.321 513.834 487.752 519.452 490.779 524.206C495.969 532.848 505.042 544.521 513.255 550.574C522.331 557.488 531.409 564.403 540.916 570.455C557.775 580.83 576.794 586.879 593.218 597.254C602.731 603.301 612.235 611.086 621.744 617.569C626.501 621.024 629.524 626.645 635.576 628.806V627.51C632.55 623.619 631.685 618.001 628.662 613.678C624.342 609.356 620.017 605.465 615.695 601.142C603.159 584.287 587.6 569.59 570.742 557.488C556.912 547.978 526.654 535.012 521.035 519.018C521.035 519.018 520.601 518.587 520.17 518.156C529.68 517.291 540.917 513.834 549.995 511.239C564.692 507.348 578.09 508.213 593.218 504.324C600.133 502.594 607.05 500.433 613.965 498.272V494.383C606.188 486.601 600.567 476.229 592.353 468.881C570.31 449.858 546.104 431.276 521.035 415.716C507.634 407.072 490.345 401.451 476.082 394.105C470.897 391.507 462.25 390.214 459.226 385.891C451.444 376.382 447.122 363.849 441.503 352.609C428.973 328.833 416.865 302.471 406.06 277.402C398.283 260.544 393.527 243.686 384.017 228.127C339.498 154.647 291.087 110.128 216.743 66.4706C200.749 57.3948 181.733 53.5036 161.417 48.7502C150.614 48.3163 139.806 47.454 129 47.0202C122.085 43.994 115.168 35.7832 109.116 31.892C84.4833 16.33 20.9418 -17.3809 2.78759 27.1386C-8.88324 55.2337 20.0769 82.8948 30.0176 97.1606C37.3688 107.101 46.8757 118.338 52.063 129.578C55.0892 136.921 55.9515 144.706 58.9777 152.486C65.895 171.5 72.3758 192.683 81.4543 210.406C86.2105 219.482 91.3951 228.992 97.4474 237.202C100.905 241.956 106.954 244.12 108.253 251.899C102.204 260.544 101.77 273.511 98.3097 284.317C82.7504 333.158 88.8028 393.671 110.846 429.546C117.76 440.349 134.187 464.127 156.23 455.049C175.68 447.269 171.358 422.631 176.977 401.019C178.275 395.829 177.41 392.375 180.003 388.917C180.005 389.349 180.003 389.782 180.003 389.782C186.055 401.884 192.105 413.555 197.723 425.657C211.124 446.835 234.463 468.88 253.913 483.577C264.291 491.354 272.501 504.755 285.468 509.511V508.212H284.603C282.008 504.321 278.12 502.594 274.663 499.568C266.883 491.788 258.236 482.278 252.186 473.634C234.034 449.427 218.039 422.631 203.775 394.967C196.861 381.569 190.809 366.872 185.19 353.474C182.595 348.284 182.595 340.507 178.273 337.915C171.789 347.422 162.282 355.635 157.526 367.306C149.318 385.891 148.45 408.799 145.424 432.572C143.697 433.006 144.559 432.572 143.694 433.437C129.865 429.977 125.109 415.716 119.921 403.612C106.954 372.924 104.793 323.649 116.033 288.208C119.059 279.129 132.026 250.603 126.839 241.959C124.246 233.745 115.599 228.992 110.845 222.508C105.227 214.295 99.1747 203.923 95.2862 194.844C84.9115 170.64 79.7242 143.841 68.4873 119.635C63.3 108.395 54.2242 96.7269 46.8757 86.3549C38.665 74.6841 29.5864 66.4706 23.1029 52.6386C20.9444 47.8851 17.9155 40.1055 21.3728 34.9181C22.2378 31.4608 23.9651 30.1647 27.4252 29.2997C33.0436 24.5435 49.0368 30.5958 54.6551 33.1881C70.6483 39.6688 84.0464 45.7239 97.4472 54.7997C103.497 59.122 109.98 67.3356 117.76 69.4967H126.838C140.67 72.5202 156.23 70.3617 169.197 74.2502C192.107 81.5959 212.851 92.4045 231.439 104.075C288.063 139.95 334.741 190.956 366.296 251.899C371.484 261.837 373.642 270.919 378.398 281.291C387.477 302.471 398.714 324.083 407.79 344.829C416.865 365.142 425.51 385.891 438.477 402.75C444.963 411.823 470.894 416.579 482.565 421.335C491.21 425.224 504.611 428.684 512.39 433.437C527.084 442.51 541.781 452.887 555.613 462.828C562.531 468.013 584.14 478.821 585.439 487.463Z" fill="white"/>
<path d="M144.557 111.852C137.209 111.852 132.024 112.72 126.837 114.016C126.837 114.016 126.837 114.45 126.837 114.881H127.702C131.162 121.796 137.209 126.552 141.531 132.602C144.991 139.516 148.014 146.434 151.474 153.351C151.906 152.917 152.337 152.486 152.337 152.486C158.392 148.161 161.415 141.246 161.415 130.874C158.82 127.848 158.389 124.822 156.228 121.796C153.636 117.471 148.014 115.312 144.557 111.852Z" fill="white"/>
</svg>
