<svg width="636" height="636" viewBox="0 0 636 636" fill="none" xmlns="http://www.w3.org/2000/svg">
<g clip-path="url(#clip0_737_87)">
<path d="M472.011 596.349C469.646 597.601 469.845 597.999 472.111 596.846C472.846 596.548 473.462 596.131 473.999 595.634C473.999 595.216 473.999 595.216 472.011 596.349ZM476.781 593.766C475.649 594.7 475.648 594.7 477 594.084C477.715 593.666 478.352 593.269 478.352 593.149C478.352 592.613 478.034 592.732 476.781 593.766ZM479.882 591.897C478.749 592.831 478.749 592.831 480.101 592.215C480.836 591.798 481.452 591.361 481.452 591.261C481.452 590.764 481.134 590.864 479.882 591.897ZM483.022 590.049C481.889 590.983 481.889 590.983 483.201 590.347C483.936 589.95 484.552 589.532 484.552 589.413C484.552 588.916 484.234 589.015 483.022 590.049ZM487.256 587.247C485.089 588.697 484.334 589.632 486.321 588.598C487.653 587.783 489.919 585.994 489.521 585.994C488.667 586.312 487.951 586.849 487.236 587.247H487.256ZM297.191 0.218592C295.74 0.317967 291.387 0.715467 287.571 1.03347C197.18 9.22197 112.612 57.876 59.0089 132.825C29.3753 173.906 10.1363 221.626 2.88187 271.731C0.318 289.221 0 294.388 0 318.099C0 341.79 0.318 346.878 2.88187 364.368C20.193 483.837 105.179 584.126 220.374 621.292C241.104 627.911 262.827 632.482 287.571 635.284C297.191 636.318 338.789 636.318 348.409 635.284C391.18 630.514 427.293 619.961 463.028 601.735C468.513 598.953 469.547 598.218 468.811 597.601C451.321 574.527 434.15 551.432 416.958 528.138L366.137 459.51L302.478 365.203C281.251 333.642 259.945 302.16 238.301 270.916C238.083 270.916 237.804 312.832 237.685 363.951C237.466 453.488 237.466 457.125 236.334 459.192C235.201 461.676 233.332 463.743 230.848 464.896C228.88 465.83 227.112 466.029 217.711 466.029H206.958L204.156 464.28C202.407 463.147 200.956 461.577 200.022 459.729L198.671 456.926L198.77 332.29L198.989 207.654L200.956 205.17C202.208 203.639 203.759 202.387 205.508 201.453C208.111 200.201 209.145 200.002 219.897 200.002C232.518 200.002 234.604 200.499 237.924 204.136C263.682 242.535 289.36 281.032 314.621 319.65C355.941 382.296 412.347 467.778 440.072 509.714L490.495 586.014L492.98 584.365C517.207 568.206 539.249 548.967 558.269 527.025C598.337 481.154 624.333 424.729 633.138 364.507C635.702 347.017 636.02 341.83 636.02 318.139C636.02 294.428 635.702 289.36 633.138 271.87C615.827 152.401 530.841 52.1122 415.646 14.9261C394.101 8.10897 371.941 3.45822 349.502 1.07322C343.48 0.457092 302.378 -0.278283 297.211 0.258342L297.191 0.218592ZM427.312 192.549C430.314 193.98 432.579 196.683 433.613 199.783C434.149 201.453 434.249 236.016 434.149 313.866L433.931 425.643L414.274 395.433L394.499 365.203V284.053C394.499 231.444 394.718 201.95 394.996 200.499C395.93 197.18 398.196 194.397 401.217 192.648C403.681 191.396 404.635 191.297 414.473 191.297C423.675 191.297 425.245 191.396 427.312 192.549Z" fill="white"/>
</g>
<defs>
<clipPath id="clip0_737_87">
<rect width="636" height="636" fill="white"/>
</clipPath>
</defs>
</svg>
