<svg width="636" height="636" viewBox="0 0 636 636" fill="none" xmlns="http://www.w3.org/2000/svg">
<path d="M432.777 204.177L298.605 338.348L260.77 300.513C392.716 168.567 405.752 180.013 432.777 204.177Z" fill="white"/>
<path d="M298.606 341.528C297.652 341.528 297.016 341.21 296.38 340.574L258.227 302.739C256.955 301.467 256.955 299.559 258.227 298.287C392.399 164.116 406.388 176.833 434.685 202.269C435.321 202.905 435.639 203.54 435.639 204.494C435.639 205.448 435.321 206.084 434.685 206.72L300.513 340.574C300.195 341.21 299.241 341.528 298.606 341.528ZM265.222 300.513L298.606 333.897L428.008 204.494C404.48 183.51 388.583 177.151 265.222 300.513Z" fill="black"/>
<path d="M337.077 376.819L300.513 340.256L434.685 206.084C470.613 242.329 416.88 301.149 337.077 376.819Z" fill="white"/>
<path d="M337.077 379.999C336.123 379.999 335.487 379.681 334.851 379.045L298.288 342.482C297.652 341.846 297.652 341.21 297.652 340.256C297.652 339.302 297.97 338.666 298.605 338.03L432.777 203.859C434.049 202.587 435.957 202.587 437.228 203.859C445.495 211.489 449.946 222.299 449.628 233.427C448.992 268.719 408.932 313.549 339.62 379.045C338.666 379.681 337.712 379.999 337.077 379.999ZM304.964 340.256C325.313 360.922 333.897 369.189 337.077 372.368C390.491 321.497 442.316 269.355 442.633 233.427C442.951 225.161 439.772 216.894 434.367 210.535L304.964 340.256Z" fill="black"/>
<path d="M261.406 301.467L288.431 328.492C289.067 329.128 289.067 329.764 288.431 330.4C288.113 330.718 288.113 330.718 287.795 330.718L231.837 342.8C228.976 343.117 226.432 341.21 225.797 338.348C225.479 336.759 226.115 335.169 227.068 334.215L259.499 301.785C260.134 301.149 261.088 300.831 261.406 301.467Z" fill="white"/>
<path d="M230.884 345.979C226.115 345.979 222.617 342.164 222.617 337.395C222.617 335.169 223.571 332.943 225.161 331.354L257.591 298.923C259.499 297.334 262.042 297.334 263.95 298.923L290.975 325.949C292.883 327.538 292.883 330.4 290.975 332.307C290.339 332.943 289.703 333.261 288.749 333.579L232.791 345.661C232.155 345.661 231.52 345.979 230.884 345.979ZM260.452 304.964L229.294 336.123C228.658 336.759 228.34 337.712 228.976 338.666C229.294 339.62 230.248 339.938 231.202 339.62L283.662 328.174L260.452 304.964Z" fill="black"/>
<path d="M503.679 129.778C483.33 110.065 450.582 110.701 430.87 131.368C411.157 152.034 411.793 184.464 432.459 204.176C449.31 220.392 474.746 223.253 494.776 211.171L458.531 174.926L503.679 129.778Z" fill="white"/>
<path d="M468.069 221.663C437.864 221.663 413.383 197.182 413.383 166.977C413.383 136.773 437.864 112.291 468.069 112.291C482.058 112.291 495.73 117.696 505.904 127.552C506.54 128.188 506.858 128.824 506.858 129.778C506.858 130.732 506.54 131.368 505.904 132.003L462.982 174.926L496.684 208.628C497.956 209.899 497.956 211.807 496.684 213.079C496.366 213.397 496.366 213.397 496.048 213.715C487.781 218.802 477.925 221.663 468.069 221.663ZM468.069 118.968C441.362 118.968 419.742 140.588 420.06 167.295C420.06 194.002 441.68 215.622 468.387 215.304C475.7 215.304 483.012 213.715 489.689 210.217L456.305 177.151C455.669 176.515 455.351 175.88 455.351 174.926C455.351 173.972 455.669 173.336 456.305 172.7L498.909 130.096C490.325 122.783 479.515 118.968 468.069 118.968Z" fill="black"/>
<path d="M504.632 130.732L503.996 130.096L458.531 174.926L494.458 210.853C497.956 208.628 501.453 206.084 504.314 203.223C524.663 183.192 524.663 150.762 504.632 130.732Z" fill="white"/>
<path d="M494.776 214.351C493.822 214.351 493.186 214.033 492.55 213.397L456.305 177.151C455.669 176.515 455.351 175.88 455.351 174.926C455.351 173.972 455.669 173.336 456.305 172.7L501.453 127.552C502.725 126.28 504.632 126.28 505.904 127.552L506.858 128.188C528.16 149.49 528.16 183.828 507.176 205.448C503.996 208.628 500.499 211.489 496.684 213.715C495.73 214.033 495.094 214.351 494.776 214.351ZM462.982 174.926L495.094 207.038C497.638 205.448 500.181 203.223 502.089 201.315C520.211 183.192 521.165 153.624 503.678 134.547L462.982 174.926Z" fill="black"/>
<path d="M438.182 209.899C430.552 202.269 418.152 202.269 410.521 209.899L290.657 329.764L310.687 349.794L437.546 238.514C445.813 231.52 446.449 219.12 439.454 210.853C438.818 210.535 438.5 210.217 438.182 209.899Z" fill="white"/>
<path d="M310.369 352.974C309.415 352.974 308.78 352.656 308.144 352.02L288.113 331.989C286.841 330.718 286.841 328.81 288.113 327.538L407.978 207.674C416.88 198.771 431.187 198.771 440.09 207.674C448.992 216.576 448.992 230.884 440.09 239.786C439.772 240.104 439.454 240.422 439.136 240.74L312.277 352.02C311.959 352.656 311.323 352.974 310.369 352.974ZM295.108 329.764L310.687 345.343L435.321 235.971C442.315 230.248 442.951 219.756 437.228 212.761C431.505 205.766 421.013 205.13 414.019 210.853C413.701 211.171 413.383 211.489 412.747 211.807L295.108 329.764Z" fill="black"/>
<path d="M198.771 466.161C197.5 466.797 196.864 468.069 197.182 469.341L202.587 492.233C203.859 495.412 201.951 499.227 198.454 500.181C195.91 501.135 193.049 500.181 191.459 498.273L156.485 463.618L270.627 349.476L310.051 350.112L336.759 376.819C330.4 382.224 291.929 419.424 198.771 466.161Z" fill="white"/>
<path d="M196.228 503.361C193.684 503.361 191.141 502.407 189.551 500.499L154.895 465.843C154.259 465.207 153.942 464.572 153.942 463.618C153.942 462.664 154.259 462.028 154.895 461.392L269.037 347.251C269.673 346.615 270.627 346.297 271.262 346.297L310.687 346.933C311.641 346.933 312.277 347.251 312.913 347.887L339.62 374.594C340.256 375.23 340.574 376.183 340.574 377.137C340.574 378.091 340.256 378.727 339.302 379.363L337.077 381.271C303.375 410.839 257.591 440.408 200.679 468.705L206.084 491.279C207.038 495.412 205.13 499.863 201.315 502.089C199.407 503.043 197.818 503.361 196.228 503.361ZM161.254 463.618L194.002 496.048C194.956 497.638 196.864 498.273 198.454 497.32C200.043 496.366 200.679 494.458 199.725 492.868L194.32 469.977C193.684 467.115 194.956 464.572 197.5 463.3C253.776 435.003 299.241 405.752 332.625 376.819L309.098 353.292L272.534 352.656L161.254 463.618Z" fill="black"/>
<path d="M129.46 490.961L156.803 463.618L197.5 504.314L132.639 499.863C129.778 499.545 127.87 497.002 128.188 494.14C128.188 492.868 128.506 491.597 129.46 490.961Z" fill="white"/>
<path d="M197.5 507.176L132.321 502.725C127.552 502.407 124.373 498.273 124.691 493.504C125.009 491.597 125.645 489.689 127.234 488.417L154.577 461.074C155.849 459.802 157.757 459.802 159.029 461.074L199.725 501.771C200.679 502.725 200.997 503.996 200.361 505.268C199.725 506.54 198.771 507.176 197.5 507.176ZM156.803 468.069L131.686 493.186C130.732 493.822 130.732 495.412 131.686 496.048C132.003 496.366 132.321 496.684 132.957 496.684L189.233 500.499L156.803 468.069Z" fill="black"/>
<path d="M259.499 364.102C257.591 364.102 256.319 362.512 256.319 360.922C256.319 359.968 256.637 359.332 257.273 358.697L288.113 327.856C289.385 326.584 291.293 326.584 292.565 327.856L312.595 347.887C313.549 348.84 313.867 349.794 313.549 351.066C313.231 352.02 312.277 352.974 311.005 353.292L260.134 364.102C259.816 364.102 259.499 364.102 259.499 364.102ZM290.339 334.533L269.355 355.517L303.693 348.205L290.339 334.533Z" fill="black"/>
<path d="M310.051 350.112L275.078 357.743C272.534 358.379 269.991 356.789 269.355 354.245C269.037 352.656 269.355 351.066 270.626 349.794L290.021 330.4L310.051 350.112Z" fill="white"/>
<path d="M274.442 360.922C269.991 360.922 266.493 357.425 266.493 352.974C266.493 350.748 267.447 348.84 268.719 347.251L288.113 327.856C289.385 326.584 291.293 326.584 292.565 327.856L312.595 347.887C313.549 348.84 313.867 349.794 313.549 351.066C313.231 352.02 312.277 352.974 311.005 353.292L276.032 360.922C275.396 360.922 274.76 360.922 274.442 360.922ZM290.339 334.533L273.17 351.702C272.534 352.338 272.534 352.974 272.852 353.61C273.17 354.245 273.806 354.563 274.76 354.563L304.011 348.204L290.339 334.533Z" fill="black"/>
<path d="M504.95 161.254C504.314 159.346 502.089 158.393 500.181 159.028C498.274 159.664 497.32 161.89 497.956 163.798C497.956 164.116 498.274 164.433 498.274 164.751C500.181 168.567 499.545 173.336 497.002 176.833C495.73 178.423 496.048 180.649 497.32 181.92C498.909 183.192 501.135 182.874 502.407 181.284C507.176 175.244 508.13 167.613 504.95 161.254Z" fill="black"/>
</svg>
