<svg width="636" height="636" viewBox="0 0 636 636" fill="none" xmlns="http://www.w3.org/2000/svg">
<path d="M226.66 66.7677C209.86 65.6536 193.348 68.6595 178.875 77.0157C159.577 88.1573 146.726 107.175 139.824 129.071C132.921 150.967 131.326 176.201 133.846 203.758C134.101 206.549 134.592 209.458 134.933 212.298C132.298 213.424 129.524 214.459 126.975 215.636C101.85 227.232 80.8037 241.216 65.2925 258.142C49.7813 275.068 39.75 295.717 39.75 318C39.75 340.283 49.7813 360.932 65.2925 377.858C80.8037 394.784 101.85 408.768 126.975 420.364C129.524 421.541 132.298 422.576 134.933 423.702C134.592 426.542 134.101 429.451 133.846 432.243C131.326 459.799 132.921 485.033 139.824 506.929C146.726 528.825 159.577 547.843 178.875 558.984C198.173 570.126 221.055 571.757 243.469 566.787C265.883 561.817 288.524 550.567 311.129 534.607C313.418 532.991 315.712 531.119 318 529.405C320.288 531.119 322.582 532.991 324.871 534.607C347.476 550.567 370.117 561.817 392.531 566.787C414.945 571.757 437.827 570.126 457.125 558.984C476.423 547.843 489.274 528.825 496.176 506.929C503.079 485.033 504.674 459.799 502.154 432.243C501.899 429.451 501.408 426.542 501.067 423.702C503.702 422.576 506.476 421.541 509.025 420.364C534.15 408.768 555.196 394.784 570.708 377.858C586.219 360.932 596.25 340.283 596.25 318C596.25 295.717 586.219 275.068 570.708 258.142C555.196 241.216 534.15 227.232 509.025 215.636C506.476 214.459 503.702 213.424 501.067 212.298C501.408 209.458 501.899 206.549 502.154 203.758C504.674 176.201 503.079 150.967 496.176 129.071C489.274 107.175 476.423 88.1573 457.125 77.0157C437.827 65.8741 414.945 64.2431 392.531 69.2132C370.117 74.1834 347.476 85.4331 324.871 101.394C322.582 103.009 320.288 104.882 318 106.595C315.712 104.882 313.418 103.009 311.129 101.394C288.524 85.4331 265.883 74.1834 243.469 69.2132C237.865 67.9707 232.261 67.139 226.66 66.7677ZM224.06 106.362C227.447 106.617 231.047 107.179 234.89 108.032C249.909 111.362 267.896 119.792 286.868 132.992C271.067 147.981 255.517 165.033 240.674 184.116C216.754 187.429 194.223 192.334 173.363 198.517C171.42 175.497 173.087 155.695 177.71 141.027C182.444 126.011 189.53 116.771 198.75 111.448C205.665 107.455 213.899 105.597 224.06 106.362ZM411.94 106.362C422.101 105.597 430.335 107.455 437.25 111.448C446.47 116.771 453.556 126.011 458.29 141.027C462.913 155.695 464.58 175.497 462.637 198.517C441.777 192.334 419.246 187.429 395.326 184.116C380.483 165.033 364.933 147.981 349.132 132.992C368.104 119.792 386.091 111.362 401.11 108.032C404.953 107.179 408.554 106.617 411.94 106.362ZM318 158.185C324.986 164.644 331.959 171.826 338.923 179.341C331.992 179.096 325.065 178.875 318 178.875C310.935 178.875 304.008 179.096 297.077 179.341C304.041 171.826 311.014 164.644 318 158.185ZM318 218.625C337.17 218.625 355.75 219.752 373.627 221.653C384.211 236.184 394.475 251.711 404.06 268.313C413.646 284.916 421.961 301.567 429.253 318C421.961 334.433 413.646 351.085 404.06 367.688C394.475 384.289 384.211 399.816 373.627 414.347C355.75 416.248 337.17 417.375 318 417.375C298.83 417.375 280.25 416.248 262.373 414.347C251.789 399.816 241.525 384.289 231.94 367.688C222.354 351.085 214.039 334.433 206.747 318C214.039 301.567 222.354 284.916 231.94 268.313C241.525 251.711 251.789 236.184 262.373 221.653C280.25 219.752 298.83 218.625 318 218.625ZM208.377 230.542C204.699 236.422 201.04 242.319 197.508 248.438C193.975 254.556 190.707 260.674 187.454 266.799C184.433 257.025 181.711 247.378 179.613 238.112C188.696 235.292 198.391 232.815 208.377 230.542ZM427.623 230.542C437.609 232.815 447.304 235.292 456.387 238.112C454.289 247.378 451.568 257.025 448.546 266.799C445.293 260.674 442.025 254.556 438.492 248.438C434.96 242.319 431.301 236.422 427.623 230.542ZM142.192 252.475C147.271 273.649 154.285 295.609 163.386 318C154.285 340.391 147.271 362.351 142.192 383.525C121.293 373.7 104.988 362.33 94.6003 350.996C83.9626 339.388 79.5 328.647 79.5 318C79.5 307.353 83.9626 296.612 94.6003 285.004C104.988 273.67 121.293 262.301 142.192 252.475ZM493.808 252.475C514.707 262.301 531.012 273.67 541.4 285.004C552.037 296.612 556.5 307.353 556.5 318C556.5 328.647 552.037 339.388 541.4 350.996C531.012 362.33 514.707 373.7 493.808 383.525C488.729 362.351 481.715 340.391 472.614 318C481.715 295.609 488.729 273.649 493.808 252.475ZM318 258.375C285.305 258.375 258.375 285.306 258.375 318C258.375 350.695 285.305 377.625 318 377.625C350.695 377.625 377.625 350.695 377.625 318C377.625 285.306 350.695 258.375 318 258.375ZM318 298.125C329.212 298.125 337.875 306.788 337.875 318C337.875 329.212 329.212 337.875 318 337.875C306.788 337.875 298.125 329.212 298.125 318C298.125 306.788 306.788 298.125 318 298.125ZM187.454 369.202C190.707 375.326 193.975 381.444 197.508 387.563C201.04 393.681 204.699 399.578 208.377 405.458C198.391 403.185 188.696 400.708 179.613 397.888C181.711 388.622 184.433 378.975 187.454 369.202ZM448.546 369.202C451.568 378.975 454.289 388.622 456.387 397.888C447.304 400.708 437.609 403.185 427.623 405.458C431.301 399.578 434.96 393.681 438.492 387.563C442.025 381.444 445.293 375.326 448.546 369.202ZM173.363 437.483C194.223 443.666 216.754 448.572 240.674 451.885C255.517 470.967 271.067 488.019 286.868 503.008C267.896 516.208 249.909 524.638 234.89 527.969C219.518 531.377 207.97 529.876 198.75 524.553C189.53 519.229 182.444 509.99 177.71 494.973C173.087 480.305 171.42 460.503 173.363 437.483ZM462.637 437.483C464.58 460.503 462.913 480.305 458.29 494.973C453.556 509.99 446.47 519.229 437.25 524.553C428.03 529.876 416.482 531.377 401.11 527.969C386.091 524.638 368.104 516.208 349.132 503.008C364.933 488.019 380.483 470.967 395.326 451.885C419.246 448.572 441.777 443.666 462.637 437.483ZM297.077 456.659C304.008 456.904 310.935 457.125 318 457.125C325.065 457.125 331.992 456.904 338.923 456.659C331.959 464.174 324.986 471.356 318 477.815C311.014 471.356 304.041 464.174 297.077 456.659Z" fill="white"/>
</svg>
