<svg width="24" height="25" viewBox="0 0 24 25" fill="none" xmlns="http://www.w3.org/2000/svg">
<g clip-path="url(#clip0_191_40)">
<mask id="mask0_191_40" style="mask-type:luminance" maskUnits="userSpaceOnUse" x="0" y="0" width="24" height="25">
<path d="M24 0.409302H0V24.4093H24V0.409302Z" fill="white"/>
</mask>
<g mask="url(#mask0_191_40)">
<path fill-rule="evenodd" clip-rule="evenodd" d="M22.6729 12.4093C23.1323 12.4093 23.5772 12.3476 24 12.2321C23.6639 12.1612 23.3154 12.1239 22.9583 12.1239H17.0226C16.0422 12.1239 15.1273 11.843 14.3543 11.3573C14.5232 10.3681 14.9896 9.41969 15.7532 8.65605L19.5469 4.86243C19.8718 4.53759 20.1427 4.17933 20.36 3.79873C20.0722 3.98625 19.7994 4.20629 19.5469 4.45886L15.3497 8.65605C14.6564 9.34929 13.8109 9.79751 12.9209 10.0007C12.3408 9.1817 12 8.18135 12 7.1014V1.73642C12 1.27703 11.9383 0.83205 11.8228 0.409302C11.7519 0.745387 11.7146 1.09386 11.7146 1.45104V7.38677C11.7146 8.36716 11.4337 9.28196 10.948 10.055C9.95876 9.88603 9.01039 9.41968 8.24675 8.65604L4.45313 4.86243C4.12829 4.53759 3.77003 4.26655 3.38942 4.04931C3.57695 4.33708 3.79699 4.60987 4.04956 4.86243L8.24675 9.05962C8.93999 9.75287 9.38822 10.5984 9.59142 11.4885C8.7724 12.0685 7.77205 12.4093 6.6921 12.4093H1.32712C0.867726 12.4093 0.422747 12.471 0 12.5865C0.336088 12.6573 0.684563 12.6947 1.04175 12.6947H6.97747C7.95787 12.6947 8.87266 12.9756 9.64574 13.4613C9.47672 14.4505 9.01039 15.3989 8.24675 16.1625L4.45313 19.9562C4.1283 20.2811 3.85726 20.6393 3.64002 21.0199C3.92779 20.8323 4.20056 20.6123 4.45313 20.3598L8.65032 16.1625C9.34356 15.4693 10.1891 15.0211 11.0792 14.8178C11.6592 15.6369 12 16.6373 12 17.7173V23.0822C12 23.5416 12.0617 23.9865 12.1772 24.4093C12.248 24.0732 12.2854 23.7247 12.2854 23.3676V17.4318C12.2854 16.4514 12.5663 15.5366 13.052 14.7636C14.0412 14.9325 14.9896 15.3989 15.7532 16.1625L19.5469 19.9562C19.8718 20.2811 20.23 20.552 20.6106 20.7693C20.423 20.4815 20.203 20.2087 19.9505 19.9562L15.7532 15.759C15.06 15.0657 14.6118 14.2202 14.4086 13.3302C15.2276 12.7501 16.228 12.4093 17.308 12.4093H22.6729Z" fill="#292D32"/>
</g>
</g>
<defs>
<clipPath id="clip0_191_40">
<rect width="24" height="24" fill="white" transform="translate(0 0.409302)"/>
</clipPath>
</defs>
</svg>
