<svg width="636" height="636" viewBox="0 0 636 636" fill="none" xmlns="http://www.w3.org/2000/svg">
<path d="M178.875 272.288C197.425 198.088 243.8 160.988 318 160.988C429.3 160.988 443.213 244.463 498.863 258.375C535.963 267.65 568.425 253.738 596.25 216.638C577.7 290.838 531.325 327.938 457.125 327.938C345.825 327.938 331.912 244.463 276.262 230.55C239.162 221.275 206.7 235.188 178.875 272.288ZM39.75 439.238C58.3 365.038 104.675 327.938 178.875 327.938C290.175 327.938 304.088 411.413 359.738 425.325C396.838 434.6 429.3 420.688 457.125 383.588C438.575 457.788 392.2 494.888 318 494.888C206.7 494.888 192.788 411.413 137.138 397.5C100.038 388.225 67.575 402.138 39.75 439.238Z" fill="white"/>
</svg>
