<svg width="1512" height="182" viewBox="0 0 1512 182" fill="none" xmlns="http://www.w3.org/2000/svg">
<path d="M0 25.0459L36.12 31.4743C72.24 37.8193 144.48 50.6761 216.384 63.867C288.456 77.0578 360.024 90.7496 432.096 84.0707C504 77.3918 576.24 50.3422 648.144 32.5596C720.216 14.7771 791.784 6.09451 863.856 14.7771C935.76 23.3762 1008 49.2569 1079.9 54.5165C1151.98 59.8596 1223.54 44.4982 1295.62 31.9752C1367.52 19.4523 1439.76 9.76788 1475.88 4.84219L1512 0V182H1475.88C1439.76 182 1367.52 182 1295.62 182C1223.54 182 1151.98 182 1079.9 182C1008 182 935.76 182 863.856 182C791.784 182 720.216 182 648.144 182C576.24 182 504 182 432.096 182C360.024 182 288.456 182 216.384 182C144.48 182 72.24 182 36.12 182H0V25.0459Z" fill="#18181B" fill-opacity="0.4"/>
<path d="M0 64.4636L36.12 69.2776C72.24 74.029 144.48 83.657 216.384 93.5351C288.456 103.413 360.024 113.666 432.096 108.665C504 103.663 576.24 83.4069 648.144 70.0903C720.216 56.7737 791.784 50.2717 863.856 56.7737C935.76 63.2132 1008 82.5942 1079.9 86.5329C1151.98 90.5341 1223.54 79.0306 1295.62 69.6527C1367.52 60.2748 1439.76 53.0225 1475.88 49.3339L1512 45.7078V182H1475.88C1439.76 182 1367.52 182 1295.62 182C1223.54 182 1151.98 182 1079.9 182C1008 182 935.76 182 863.856 182C791.784 182 720.216 182 648.144 182C576.24 182 504 182 432.096 182C360.024 182 288.456 182 216.384 182C144.48 182 72.24 182 36.12 182H0V64.4636Z" fill="#171717"/>
</svg>
